<?xml version="1.0" encoding="UTF-8" standalone="no"?>
<!-- Created with Inkscape (http://www.inkscape.org/) -->

<svg
   width="32"
   height="12"
   viewBox="0 0 8.4666662 3.1749998"
   version="1.1"
   id="svg1"
   xmlns="http://www.w3.org/2000/svg"
   xmlns:svg="http://www.w3.org/2000/svg">
  <defs
     id="defs1">
    <filter
       style="color-interpolation-filters:sRGB"
       id="filter43"
       x="-0.0030154028"
       y="-0.0029866249"
       width="1.0060308"
       height="1.0059732">
      <feGaussianBlur
         stdDeviation="0.006798331"
         id="feGaussianBlur43" />
    </filter>
  </defs>
  <g
     id="layer1">
    <g
       id="g36"
       transform="matrix(2.6383306,0,0,2.7434019,-17.308584,14.191948)"
       style="opacity:0.606469">
      <g
         id="g43"
         style="opacity:0.62;mix-blend-mode:luminosity;filter:url(#filter43)"
         transform="matrix(1.0827062,0,0,1.0407503,-1.2226239,-1.9399846)">
        <path
           id="path21"
           style="fill:#ff0000;fill-opacity:0.99705;stroke:#a47d5f;stroke-width:0;paint-order:markers fill stroke"
           d="m 8.0533344,-3.0302962 a 2.705477,2.731693 0 0 0 -0.3850763,0.027313 2.705477,2.731693 0 0 0 -0.376654,0.083258 2.705477,2.731693 0 0 0 -0.3617681,0.1360005 2.705477,2.731693 0 0 0 -0.3390473,0.1870476 2.705477,2.731693 0 0 0 -0.3090796,0.2335742 2.705477,2.731693 0 0 0 -0.272844,0.2753914 2.705477,2.731693 0 0 0 -0.2315159,0.3121229 2.705477,2.731693 0 0 0 -0.1848993,0.3420731 2.705477,2.731693 0 0 0 -0.134953,0.3648654 2.705477,2.731693 0 0 0 -0.082069,0.38087659 2.705477,2.731693 0 0 0 -0.027421,0.38916467 2.705477,2.731693 0 0 0 0.027421,0.38859957 2.705477,2.731693 0 0 0 0.082069,0.38068819 2.705477,2.731693 0 0 0 0.134953,0.36543052 2.705477,2.731693 0 0 0 0.1848993,0.34207306 2.705477,2.731693 0 0 0 0.2315159,0.3115578 2.705477,2.731693 0 0 0 0.272844,0.2759566 2.705477,2.731693 0 0 0 0.3090796,0.2335741 2.705477,2.731693 0 0 0 0.3390473,0.186671 2.705477,2.731693 0 0 0 0.3617681,0.1363771 2.705477,2.731693 0 0 0 0.376654,0.082693 2.705477,2.731693 0 0 0 0.3850763,0.027878 2.705477,2.731693 0 0 0 0.3854681,-0.027878 2.705477,2.731693 0 0 0 0.376654,-0.082693 A 2.705477,2.731693 0 0 0 9.1772245,2.185942 2.705477,2.731693 0 0 0 9.5162719,1.999271 2.705477,2.731693 0 0 0 9.8251556,1.7656969 2.705477,2.731693 0 0 0 10.098,1.4897403 a 2.705477,2.731693 0 0 0 0.231515,-0.3115578 2.705477,2.731693 0 0 0 0.185096,-0.34207306 2.705477,2.731693 0 0 0 0.134953,-0.36543052 2.705477,2.731693 0 0 0 0.08207,-0.38068819 2.705477,2.731693 0 0 0 0.02742,-0.38859957 2.705477,2.731693 0 0 0 -0.0031,-0.1344935 2.705477,2.731693 0 0 0 -0.0098,-0.1333633 2.705477,2.731693 0 0 0 -0.01645,-0.13317494 2.705477,2.731693 0 0 0 -0.02272,-0.13242147 2.705477,2.731693 0 0 0 -0.02899,-0.13072618 2.705477,2.731693 0 0 0 -0.03565,-0.12921927 2.705477,2.731693 0 0 0 -0.04133,-0.1269588 2.705477,2.731693 0 0 0 -0.04818,-0.1250752 2.705477,2.731693 0 0 0 -0.05367,-0.1226264 2.705477,2.731693 0 0 0 -0.05954,-0.119801 2.705477,2.731693 0 0 0 -0.06562,-0.116787 2.705477,2.731693 0 0 0 -0.07071,-0.1132082 2.705477,2.731693 0 0 0 -0.07658,-0.1094408 2.705477,2.731693 0 0 0 -0.08148,-0.1060502 2.705477,2.731693 0 0 0 -0.08697,-0.101341 2.705477,2.731693 0 0 0 -0.091862,-0.097009 2.705477,2.731693 0 0 0 -0.096171,-0.092488 2.705477,2.731693 0 0 0 -0.1002844,-0.087967 2.705477,2.731693 0 0 0 -0.1047893,-0.082128 2.705477,2.731693 0 0 0 -0.1085108,-0.077418 2.705477,2.731693 0 0 0 -0.1122323,-0.071391 2.705477,2.731693 0 0 0 -0.115758,-0.066117 2.705477,2.731693 0 0 0 -0.1183042,-0.060466 2.705477,2.731693 0 0 0 -0.1214381,-0.054249 2.705477,2.731693 0 0 0 -0.1239844,-0.048033 2.705477,2.731693 0 0 0 -0.1261389,-0.042382 2.705477,2.731693 0 0 0 -0.1277059,-0.03579 2.705477,2.731693 0 0 0 -0.1296646,-0.029385 2.705477,2.731693 0 0 0 -0.1306439,-0.022792 2.705477,2.731693 0 0 0 -0.1318191,-0.016388 2.705477,2.731693 0 0 0 -0.1327984,-0.00998 2.705477,2.731693 0 0 0 -0.1327985,-0.00301 z m 0.057781,0.1152802 a 2.5743978,2.5848842 0 0 1 0.1302522,0.00301 2.5743978,2.5848842 0 0 1 0.1302522,0.0098 2.5743978,2.5848842 0 0 1 0.1292728,0.016576 2.5743978,2.5848842 0 0 1 0.1284894,0.023357 2.5743978,2.5848842 0 0 1 0.1271182,0.029385 2.5743978,2.5848842 0 0 1 0.1251596,0.036166 2.5743978,2.5848842 0 0 1 0.1235927,0.042382 2.5743978,2.5848842 0 0 1 0.1214381,0.048599 2.5743978,2.5848842 0 0 1 0.1183042,0.054815 2.5743978,2.5848842 0 0 1 0.115758,0.060466 2.5743978,2.5848842 0 0 1 0.1120364,0.066493 2.5743978,2.5848842 0 0 1 0.1090984,0.071956 2.5743978,2.5848842 0 0 1 0.1047894,0.077419 2.5743978,2.5848842 0 0 1 0.1014596,0.082693 2.5743978,2.5848842 0 0 1 0.096563,0.087967 2.5743978,2.5848842 0 0 1 0.09245,0.092865 2.5743978,2.5848842 0 0 1 0.087357,0.097197 2.5743978,2.5848842 0 0 1 0.08266,0.101341 2.5743978,2.5848842 0 0 1 0.07698,0.1054851 2.5743978,2.5848842 0 0 1 0.07188,0.1094408 2.5743978,2.5848842 0 0 1 0.0662,0.1126431 2.5743978,2.5848842 0 0 1 0.06033,0.1164103 2.5743978,2.5848842 0 0 1 0.05425,0.1186707 2.5743978,2.5848842 0 0 1 0.04877,0.1220614 2.5743978,2.5848842 0 0 1 0.04172,0.1235682 2.5743978,2.5848842 0 0 1 0.03624,0.12601704 2.5743978,2.5848842 0 0 1 0.02938,0.12771232 2.5743978,2.5848842 0 0 1 0.02272,0.12865414 2.5743978,2.5848842 0 0 1 0.01665,0.13016108 2.5743978,2.5848842 0 0 1 0.0098,0.13016108 2.5743978,2.5848842 0 0 1 0.0035,0.13129127 2.5743978,2.5848842 0 0 1 -0.02625,0.36806765 2.5743978,2.5848842 0 0 1 -0.07815,0.36015627 A 2.5743978,2.5848842 0 0 1 10.453108,0.74362161 2.5743978,2.5848842 0 0 1 10.276827,1.0670465 2.5743978,2.5848842 0 0 1 10.056671,1.3622164 2.5743978,2.5848842 0 0 1 9.7967547,1.6231036 2.5743978,2.5848842 0 0 1 9.502757,1.8442456 2.5743978,2.5848842 0 0 1 9.1807501,2.0211215 2.5743978,2.5848842 0 0 1 8.8366102,2.1497757 2.5743978,2.5848842 0 0 1 8.4775843,2.2283244 2.5743978,2.5848842 0 0 1 8.1111154,2.2546957 2.5743978,2.5848842 0 0 1 7.7448424,2.2283244 2.5743978,2.5848842 0 0 1 7.3862083,2.1497757 2.5743978,2.5848842 0 0 1 7.0418725,2.0211215 2.5743978,2.5848842 0 0 1 6.7194739,1.8442456 2.5743978,2.5848842 0 0 1 6.4254761,1.6231036 2.5743978,2.5848842 0 0 1 6.1655594,1.3622164 2.5743978,2.5848842 0 0 1 5.9454039,1.0670465 2.5743978,2.5848842 0 0 1 5.7697103,0.74362161 2.5743978,2.5848842 0 0 1 5.6410251,0.39796955 2.5743978,2.5848842 0 0 1 5.5628738,0.03781328 2.5743978,2.5848842 0 0 1 5.5366278,-0.33025437 2.5743978,2.5848842 0 0 1 5.5628738,-0.69813365 2.5743978,2.5848842 0 0 1 5.6410248,-1.0582899 2.5743978,2.5848842 0 0 1 5.76971,-1.4041303 a 2.5743978,2.5848842 0 0 1 0.1756936,-0.32399 2.5743978,2.5848842 0 0 1 0.2201555,-0.2949815 2.5743978,2.5848842 0 0 1 0.2599167,-0.2610757 2.5743978,2.5848842 0 0 1 0.2939978,-0.2205768 2.5743978,2.5848842 0 0 1 0.3223986,-0.1766876 2.5743978,2.5848842 0 0 1 0.3443358,-0.1292192 2.5743978,2.5848842 0 0 1 0.3586341,-0.077984 2.5743978,2.5848842 0 0 1 0.3662733,-0.026371 z m 0.3705821,0.4614973 a 1.9599755,1.8770558 0 0 0 -0.3406143,0.028255 1.9599755,1.8770558 0 0 1 0.3406143,-0.028255 z m -0.3406143,0.028255 a 1.9599755,1.8770558 0 0 0 -0.3296457,0.084765 1.9599755,1.8770558 0 0 1 0.3296457,-0.084765 z M 7.8114375,-2.340499 A 1.9599755,1.8770558 0 0 0 7.5013786,-2.2024265 1.9599755,1.8770558 0 0 1 7.8114375,-2.340499 Z m -0.3100589,0.1380725 a 1.9599755,1.8770558 0 0 0 -0.2795035,0.1876128 1.9599755,1.8770558 0 0 1 0.2795035,-0.1876128 z m -0.2795035,0.1876128 a 1.9599755,1.8770558 0 0 0 -0.2418969,0.2315021 1.9599755,1.8770558 0 0 1 0.2418969,-0.2315021 z m -0.2418969,0.2315021 a 1.9599755,1.8770558 0 0 0 -0.1958679,0.2682335 1.9599755,1.8770558 0 0 1 0.1958679,-0.2682335 z m -0.1958679,0.2682335 a 1.9599755,1.8770558 0 0 0 -0.1441588,0.2964885 1.9599755,1.8770558 0 0 1 0.1441588,-0.2964885 z m -0.1441588,0.2964885 a 1.9599755,1.8770558 0 0 0 -0.088336,0.31589021 1.9599755,1.8770558 0 0 1 0.088336,-0.31589021 z m -0.088336,0.31589021 a 1.9599755,1.8770558 0 0 0 -0.029968,0.32606197 1.9599755,1.8770558 0 0 1 0.029968,-0.32606197 z m -0.029968,0.32606197 a 1.9599755,1.8770558 0 0 0 0.029968,0.32606198 1.9599755,1.8770558 0 0 1 -0.029968,-0.32606198 z m 0.029968,0.32606198 a 1.9599755,1.8770558 0 0 0 0.088336,0.31570183 1.9599755,1.8770558 0 0 1 -0.088336,-0.31570183 z m 0.088336,0.31570183 A 1.9599755,1.8770558 0 0 0 6.7841103,0.36180323 1.9599755,1.8770558 0 0 1 6.6399515,0.06512639 Z M 6.7841103,0.36180323 A 1.9599755,1.8770558 0 0 0 6.9799782,0.6298484 1.9599755,1.8770558 0 0 1 6.7841103,0.36180323 Z M 6.9799782,0.6298484 A 1.9599755,1.8770558 0 0 0 7.2218751,0.86097379 1.9599755,1.8770558 0 0 1 6.9799782,0.6298484 Z M 7.2218751,0.86097379 A 1.9599755,1.8770558 0 0 0 7.5013786,1.0489633 1.9599755,1.8770558 0 0 1 7.2218751,0.86097379 Z M 7.5013786,1.0489633 A 1.9599755,1.8770558 0 0 0 7.8114375,1.1870358 1.9599755,1.8770558 0 0 1 7.5013786,1.0489633 Z m 0.3100589,0.1380725 a 1.9599755,1.8770558 0 0 0 0.3296457,0.084765 1.9599755,1.8770558 0 0 1 -0.3296457,-0.084765 z m 0.3296457,0.084765 a 1.9599755,1.8770558 0 0 0 0.3406143,0.028443 1.9599755,1.8770558 0 0 1 -0.3406143,-0.028443 z m 0.3406143,0.028443 A 1.9599755,1.8770558 0 0 0 8.8217243,1.2718006 1.9599755,1.8770558 0 0 1 8.4816975,1.3002438 Z M 8.8217243,1.2718006 A 1.9599755,1.8770558 0 0 0 9.1519576,1.1870358 1.9599755,1.8770558 0 0 1 8.8217243,1.2718006 Z M 9.1519576,1.1870358 A 1.9599755,1.8770558 0 0 0 9.4614289,1.0489633 1.9599755,1.8770558 0 0 1 9.1519576,1.1870358 Z M 9.4614289,1.0489633 A 1.9599755,1.8770558 0 0 0 9.74152,0.86097379 1.9599755,1.8770558 0 0 1 9.4614289,1.0489633 Z m 0.9803191,-1.62560072 a 1.9599755,1.8770558 0 0 1 -0.02997,0.32606198 1.9599755,1.8770558 0 0 0 0.02997,-0.32606198 z m -0.02997,0.32606198 a 1.9599755,1.8770558 0 0 1 -0.08834,0.31570183 1.9599755,1.8770558 0 0 0 0.08834,-0.31570183 z m -0.08834,0.31570183 A 1.9599755,1.8770558 0 0 1 10.179285,0.36180323 1.9599755,1.8770558 0 0 0 10.323444,0.06512639 Z M 10.179285,0.36180323 A 1.9599755,1.8770558 0 0 1 9.9828293,0.6298484 1.9599755,1.8770558 0 0 0 10.179285,0.36180323 Z" />
        <path
           id="path22"
           style="fill:#ff6600;fill-opacity:0.99705;stroke:#a47d5f;stroke-width:0;paint-order:markers fill stroke"
           d="m 8.1111154,-2.915016 a 2.5743978,2.5848842 0 0 0 -0.366273,0.026371 2.5743978,2.5848842 0 0 0 -0.3586341,0.077984 2.5743978,2.5848842 0 0 0 -0.3443358,0.1292192 2.5743978,2.5848842 0 0 0 -0.3223986,0.1766876 2.5743978,2.5848842 0 0 0 -0.2939978,0.2205768 2.5743978,2.5848842 0 0 0 -0.2599167,0.2610757 2.5743978,2.5848842 0 0 0 -0.2201555,0.2949815 2.5743978,2.5848842 0 0 0 -0.1756936,0.32399 2.5743978,2.5848842 0 0 0 -0.1286852,0.3458404 2.5743978,2.5848842 0 0 0 -0.078151,0.36015625 2.5743978,2.5848842 0 0 0 -0.026246,0.36787928 2.5743978,2.5848842 0 0 0 0.026246,0.36806765 2.5743978,2.5848842 0 0 0 0.078151,0.36015627 2.5743978,2.5848842 0 0 0 0.1286852,0.34565206 2.5743978,2.5848842 0 0 0 0.1756936,0.32342489 2.5743978,2.5848842 0 0 0 0.2201555,0.2951699 2.5743978,2.5848842 0 0 0 0.2599167,0.2608872 2.5743978,2.5848842 0 0 0 0.2939978,0.221142 2.5743978,2.5848842 0 0 0 0.3223986,0.1768759 2.5743978,2.5848842 0 0 0 0.3443358,0.1286542 2.5743978,2.5848842 0 0 0 0.3586341,0.078549 2.5743978,2.5848842 0 0 0 0.366273,0.026371 2.5743978,2.5848842 0 0 0 0.3664689,-0.026371 2.5743978,2.5848842 0 0 0 0.3590259,-0.078549 2.5743978,2.5848842 0 0 0 0.3441399,-0.1286542 2.5743978,2.5848842 0 0 0 0.3220069,-0.1768759 2.5743978,2.5848842 0 0 0 0.2939977,-0.221142 2.5743978,2.5848842 0 0 0 0.2599163,-0.2608872 2.5743978,2.5848842 0 0 0 0.220156,-0.2951699 2.5743978,2.5848842 0 0 0 0.176281,-0.32342489 2.5743978,2.5848842 0 0 0 0.128098,-0.34565206 2.5743978,2.5848842 0 0 0 0.07815,-0.36015627 2.5743978,2.5848842 0 0 0 0.02625,-0.36806765 2.5743978,2.5848842 0 0 0 -0.0035,-0.13129127 2.5743978,2.5848842 0 0 0 -0.0098,-0.13016108 2.5743978,2.5848842 0 0 0 -0.01665,-0.13016108 2.5743978,2.5848842 0 0 0 -0.02272,-0.12865414 2.5743978,2.5848842 0 0 0 -0.02938,-0.12771232 2.5743978,2.5848842 0 0 0 -0.03624,-0.12601704 2.5743978,2.5848842 0 0 0 -0.04172,-0.1235682 2.5743978,2.5848842 0 0 0 -0.04877,-0.1220614 2.5743978,2.5848842 0 0 0 -0.05425,-0.1186707 2.5743978,2.5848842 0 0 0 -0.06033,-0.1164103 2.5743978,2.5848842 0 0 0 -0.0662,-0.1126431 2.5743978,2.5848842 0 0 0 -0.07188,-0.1094408 2.5743978,2.5848842 0 0 0 -0.07698,-0.1054851 2.5743978,2.5848842 0 0 0 -0.08266,-0.101341 2.5743978,2.5848842 0 0 0 -0.087357,-0.097197 2.5743978,2.5848842 0 0 0 -0.09245,-0.092865 2.5743978,2.5848842 0 0 0 -0.096563,-0.087967 2.5743978,2.5848842 0 0 0 -0.1014596,-0.082693 2.5743978,2.5848842 0 0 0 -0.1047894,-0.077419 2.5743978,2.5848842 0 0 0 -0.1090984,-0.071956 2.5743978,2.5848842 0 0 0 -0.1120364,-0.066493 2.5743978,2.5848842 0 0 0 -0.115758,-0.060466 2.5743978,2.5848842 0 0 0 -0.1183042,-0.054815 2.5743978,2.5848842 0 0 0 -0.1214381,-0.048599 2.5743978,2.5848842 0 0 0 -0.1235927,-0.042382 2.5743978,2.5848842 0 0 0 -0.1251596,-0.036166 2.5743978,2.5848842 0 0 0 -0.1271182,-0.029385 2.5743978,2.5848842 0 0 0 -0.1284894,-0.023357 2.5743978,2.5848842 0 0 0 -0.1292728,-0.016576 2.5743978,2.5848842 0 0 0 -0.1302522,-0.0098 2.5743978,2.5848842 0 0 0 -0.1302522,-0.00301 z m 0.083636,0.073274 h 1.959e-4 a 2.4590478,2.4747775 0 0 1 0.1286852,0.0032 2.4590478,2.4747775 0 0 1 0.1286853,0.01036 2.4590478,2.4747775 0 0 1 0.12751,0.016953 2.4590478,2.4747775 0 0 1 0.1267265,0.023357 2.4590478,2.4747775 0 0 1 0.1249637,0.030327 2.4590478,2.4747775 0 0 1 0.1235927,0.036731 2.4590478,2.4747775 0 0 1 0.1214381,0.043513 2.4590478,2.4747775 0 0 1 0.1188918,0.04954 2.4590478,2.4747775 0 0 1 0.1161497,0.055756 2.4590478,2.4747775 0 0 1 0.1132117,0.061596 2.4590478,2.4747775 0 0 1 0.1094901,0.067623 2.4590478,2.4747775 0 0 1 0.1059646,0.073463 2.4590478,2.4747775 0 0 1 0.1024389,0.078925 2.4590478,2.4747775 0 0 1 0.09813,0.084388 2.4590478,2.4747775 0 0 1 0.093037,0.088909 2.4590478,2.4747775 0 0 1 0.088924,0.093995 2.4590478,2.4747775 0 0 1 0.08364,0.098704 2.4590478,2.4747775 0 0 1 0.07795,0.1028479 2.4590478,2.4747775 0 0 1 0.07286,0.106427 2.4590478,2.4747775 0 0 1 0.06718,0.110571 2.4590478,2.4747775 0 0 1 0.0615,0.1141499 2.4590478,2.4747775 0 0 1 0.05582,0.1167871 2.4590478,2.4747775 0 0 1 0.04916,0.1199893 2.4590478,2.4747775 0 0 1 0.04289,0.1218729 2.4590478,2.4747775 0 0 1 0.03663,0.1241334 2.4590478,2.4747775 0 0 1 0.02997,0.12601703 2.4590478,2.4747775 0 0 1 0.02331,0.12771231 2.4590478,2.4747775 0 0 1 0.01704,0.12808905 2.4590478,2.4747775 0 0 1 0.0098,0.12921925 2.4590478,2.4747775 0 0 1 0.0035,0.12959597 2.4590478,2.4747775 0 0 1 -0.03036,0.38709265 2.4590478,2.4747775 0 0 1 -0.0899,0.37786269 A 2.4590478,2.4747775 0 0 1 10.385925,0.75661888 2.4590478,2.4747775 0 0 1 10.184377,1.0877667 2.4590478,2.4747775 0 0 1 9.9336664,1.3829367 2.4590478,2.4747775 0 0 1 9.6402563,1.6349707 2.4590478,2.4747775 0 0 1 9.3115899,1.8382179 2.4590478,2.4747775 0 0 1 8.9549144,1.9864621 2.4590478,2.4747775 0 0 1 8.5798274,2.077443 2.4590478,2.4747775 0 0 1 8.194751,2.1079583 2.4590478,2.4747775 0 0 1 7.8104582,2.077443 2.4590478,2.4747775 0 0 1 7.4351753,1.9864621 2.4590478,2.4747775 0 0 1 7.0786956,1.8382179 2.4590478,2.4747775 0 0 1 6.7494417,1.6349707 2.4590478,2.4747775 0 0 1 6.4564233,1.3829367 2.4590478,2.4747775 0 0 1 6.2059082,1.0877667 2.4590478,2.4747775 0 0 1 6.0043601,0.75661888 2.4590478,2.4747775 0 0 1 5.8564798,0.39796955 2.4590478,2.4747775 0 0 1 5.7659889,0.02010686 2.4590478,2.4747775 0 0 1 5.7360211,-0.36698579 2.4590478,2.4747775 0 0 1 5.7659889,-0.75389006 2.4590478,2.4747775 0 0 1 5.8564798,-1.1317528 2.4590478,2.4747775 0 0 1 6.0043601,-1.4904021 2.4590478,2.4747775 0 0 1 6.2059082,-1.82155 2.4590478,2.4747775 0 0 1 6.4564233,-2.1170966 2.4590478,2.4747775 0 0 1 6.7494417,-2.369319 2.4590478,2.4747775 0 0 1 7.0786956,-2.5720011 2.4590478,2.4747775 0 0 1 7.4351753,-2.7208104 2.4590478,2.4747775 0 0 1 7.8104582,-2.8112262 2.4590478,2.4747775 0 0 1 8.1947514,-2.841742 Z m 1.7880783,3.47159 A 1.9599755,1.8770558 0 0 1 9.74152,0.86097379 1.9599755,1.8770558 0 0 0 9.9828297,0.629848 Z" />
        <path
           id="path23"
           style="fill:#ffd42a;fill-opacity:0.99705;stroke:#a47d5f;stroke-width:0;paint-order:markers fill stroke"
           d="m 8.194751,-2.8417416 a 2.4590478,2.4747775 0 0 0 -0.3842928,0.030515 2.4590478,2.4747775 0 0 0 -0.3752829,0.090416 2.4590478,2.4747775 0 0 0 -0.3564797,0.1488093 2.4590478,2.4747775 0 0 0 -0.3292539,0.2026821 2.4590478,2.4747775 0 0 0 -0.2930184,0.2522224 2.4590478,2.4747775 0 0 0 -0.2505151,0.2955466 2.4590478,2.4747775 0 0 0 -0.2015481,0.3311479 2.4590478,2.4747775 0 0 0 -0.1478803,0.3586493 2.4590478,2.4747775 0 0 0 -0.090491,0.37786274 2.4590478,2.4747775 0 0 0 -0.029968,0.38690427 2.4590478,2.4747775 0 0 0 0.029968,0.38709265 2.4590478,2.4747775 0 0 0 0.090491,0.37786269 2.4590478,2.4747775 0 0 0 0.1478803,0.35864933 2.4590478,2.4747775 0 0 0 0.2015481,0.33114782 2.4590478,2.4747775 0 0 0 0.2505151,0.29517 2.4590478,2.4747775 0 0 0 0.2930184,0.252034 2.4590478,2.4747775 0 0 0 0.3292539,0.2032472 2.4590478,2.4747775 0 0 0 0.3564797,0.1482442 2.4590478,2.4747775 0 0 0 0.3752829,0.090981 2.4590478,2.4747775 0 0 0 0.3842928,0.030515 2.4590478,2.4747775 0 0 0 0.3850764,-0.030515 2.4590478,2.4747775 0 0 0 0.375087,-0.090981 2.4590478,2.4747775 0 0 0 0.3566755,-0.1482442 2.4590478,2.4747775 0 0 0 0.3286664,-0.2032472 2.4590478,2.4747775 0 0 0 0.2934101,-0.252034 2.4590478,2.4747775 0 0 0 0.2507106,-0.29517 2.4590478,2.4747775 0 0 0 0.201548,-0.33114782 2.4590478,2.4747775 0 0 0 0.147881,-0.35864933 2.4590478,2.4747775 0 0 0 0.0899,-0.37786269 2.4590478,2.4747775 0 0 0 0.03036,-0.38709265 2.4590478,2.4747775 0 0 0 -0.0035,-0.12959597 2.4590478,2.4747775 0 0 0 -0.0098,-0.12921925 2.4590478,2.4747775 0 0 0 -0.01704,-0.12808905 2.4590478,2.4747775 0 0 0 -0.02331,-0.12771231 2.4590478,2.4747775 0 0 0 -0.02997,-0.12601703 2.4590478,2.4747775 0 0 0 -0.03663,-0.1241334 2.4590478,2.4747775 0 0 0 -0.04289,-0.1218729 2.4590478,2.4747775 0 0 0 -0.04916,-0.1199893 2.4590478,2.4747775 0 0 0 -0.05582,-0.1167871 2.4590478,2.4747775 0 0 0 -0.0615,-0.1141499 2.4590478,2.4747775 0 0 0 -0.06718,-0.110571 2.4590478,2.4747775 0 0 0 -0.07286,-0.106427 2.4590478,2.4747775 0 0 0 -0.07795,-0.1028479 2.4590478,2.4747775 0 0 0 -0.08364,-0.098704 2.4590478,2.4747775 0 0 0 -0.088924,-0.093995 2.4590478,2.4747775 0 0 0 -0.093037,-0.088909 2.4590478,2.4747775 0 0 0 -0.09813,-0.084388 2.4590478,2.4747775 0 0 0 -0.1024389,-0.078925 2.4590478,2.4747775 0 0 0 -0.1059646,-0.073463 2.4590478,2.4747775 0 0 0 -0.1094901,-0.067623 2.4590478,2.4747775 0 0 0 -0.1132117,-0.061596 2.4590478,2.4747775 0 0 0 -0.1161497,-0.055756 2.4590478,2.4747775 0 0 0 -0.1188918,-0.04954 2.4590478,2.4747775 0 0 0 -0.1214381,-0.043513 2.4590478,2.4747775 0 0 0 -0.1235927,-0.036731 2.4590478,2.4747775 0 0 0 -0.1249637,-0.030327 2.4590478,2.4747775 0 0 0 -0.1267265,-0.023357 2.4590478,2.4747775 0 0 0 -0.12751,-0.016953 2.4590478,2.4747775 0 0 0 -0.1286853,-0.01036 2.4590478,2.4747775 0 0 0 -0.1286852,-0.0032 z m 0.063069,0.073463 h 1.959e-4 a 2.3751574,2.3541844 0 0 1 0.1243761,0.00301 2.3751574,2.3541844 0 0 1 0.1241803,0.0098 2.3751574,2.3541844 0 0 1 0.1228092,0.016011 2.3751574,2.3541844 0 0 1 0.1226133,0.022227 2.3751574,2.3541844 0 0 1 0.1208505,0.029008 2.3751574,2.3541844 0 0 1 0.1194794,0.035224 2.3751574,2.3541844 0 0 1 0.1167373,0.040687 2.3751574,2.3541844 0 0 1 0.1151703,0.047657 2.3751574,2.3541844 0 0 1 0.1122323,0.052742 2.3751574,2.3541844 0 0 1 0.1089026,0.05877 2.3751574,2.3541844 0 0 1 0.1059645,0.06461 2.3751574,2.3541844 0 0 1 0.1028307,0.069884 2.3751574,2.3541844 0 0 1 0.098717,0.074781 2.3751574,2.3541844 0 0 1 0.094604,0.080244 2.3751574,2.3541844 0 0 1 0.089903,0.084765 2.3751574,2.3541844 0 0 1 0.08579,0.089286 2.3751574,2.3541844 0 0 1 0.0807,0.093995 2.3751574,2.3541844 0 0 1 0.0758,0.097762 2.3751574,2.3541844 0 0 1 0.07032,0.101341 2.3751574,2.3541844 0 0 1 0.06522,0.1052968 2.3751574,2.3541844 0 0 1 0.05876,0.1081222 2.3751574,2.3541844 0 0 1 0.05386,0.1115128 2.3751574,2.3541844 0 0 1 0.0476,0.1137732 2.3751574,2.3541844 0 0 1 0.04133,0.116222 2.3751574,2.3541844 0 0 1 0.03565,0.1179173 2.3751574,2.3541844 0 0 1 0.02879,0.11980091 2.3751574,2.3541844 0 0 1 0.02272,0.12149623 2.3751574,2.3541844 0 0 1 0.01606,0.12187296 2.3751574,2.3541844 0 0 1 0.0098,0.12300316 2.3751574,2.3541844 0 0 1 0.0031,0.12300316 2.3751574,2.3541844 0 0 1 -0.02899,0.36844438 2.3751574,2.3541844 0 0 1 -0.08716,0.35921444 2.3751574,2.3541844 0 0 1 -0.142787,0.341508 A 2.3751574,2.3541844 0 0 1 10.179677,0.96947275 2.3751574,2.3541844 0 0 1 9.9373879,1.2505152 2.3751574,2.3541844 0 0 1 9.6541629,1.4903054 2.3751574,2.3541844 0 0 1 9.3364651,1.6835692 2.3751574,2.3541844 0 0 1 8.9921293,1.8246555 2.3751574,2.3541844 0 0 1 8.629382,1.9109273 2.3751574,2.3541844 0 0 1 8.2578205,1.9399357 2.3751574,2.3541844 0 0 1 7.8862591,1.9109273 2.3751574,2.3541844 0 0 1 7.5240993,1.8246555 2.3751574,2.3541844 0 0 1 7.1799594,1.6835692 2.3751574,2.3541844 0 0 1 6.8620657,1.4903054 2.3751574,2.3541844 0 0 1 6.578449,1.2505152 2.3751574,2.3541844 0 0 1 6.3365521,0.96947275 2.3751574,2.3541844 0 0 1 6.1416635,0.65471274 2.3751574,2.3541844 0 0 1 5.9990717,0.31320474 2.3751574,2.3541844 0 0 1 5.9123022,-0.0460097 a 2.3751574,2.3541844 0 0 1 -0.02938,-0.36844438 2.3751574,2.3541844 0 0 1 0.02938,-0.36787928 2.3751574,2.3541844 0 0 1 0.086769,-0.35921444 2.3751574,2.3541844 0 0 1 0.1425918,-0.341508 2.3751574,2.3541844 0 0 1 0.1948886,-0.31476 2.3751574,2.3541844 0 0 1 0.2418969,-0.2810424 2.3751574,2.3541844 0 0 1 0.2836167,-0.2397903 2.3751574,2.3541844 0 0 1 0.3178937,-0.1932638 2.3751574,2.3541844 0 0 1 0.3441399,-0.1410863 2.3751574,2.3541844 0 0 1 0.3621598,-0.08646 2.3751574,2.3541844 0 0 1 0.3715614,-0.02882 z" />
        <path
           id="path24"
           style="fill:#37c871;fill-opacity:0.99705;stroke:#a47d5f;stroke-width:0;paint-order:markers fill stroke"
           d="m 8.2578205,-2.7682787 a 2.3751574,2.3541844 0 0 0 -0.3715614,0.02882 2.3751574,2.3541844 0 0 0 -0.3621598,0.08646 2.3751574,2.3541844 0 0 0 -0.3441399,0.1410863 2.3751574,2.3541844 0 0 0 -0.3178937,0.1932638 2.3751574,2.3541844 0 0 0 -0.2836167,0.2397903 2.3751574,2.3541844 0 0 0 -0.2418969,0.2810424 2.3751574,2.3541844 0 0 0 -0.1948886,0.31476 2.3751574,2.3541844 0 0 0 -0.1425918,0.341508 2.3751574,2.3541844 0 0 0 -0.086769,0.35921444 2.3751574,2.3541844 0 0 0 -0.02938,0.36787928 2.3751574,2.3541844 0 0 0 0.02938,0.36844438 2.3751574,2.3541844 0 0 0 0.086769,0.35921444 2.3751574,2.3541844 0 0 0 0.1425918,0.341508 2.3751574,2.3541844 0 0 0 0.1948886,0.31476001 2.3751574,2.3541844 0 0 0 0.2418969,0.28104245 2.3751574,2.3541844 0 0 0 0.2836167,0.2397902 2.3751574,2.3541844 0 0 0 0.3178937,0.1932638 2.3751574,2.3541844 0 0 0 0.3441399,0.1410863 2.3751574,2.3541844 0 0 0 0.3621598,0.086272 2.3751574,2.3541844 0 0 0 0.3715614,0.029008 2.3751574,2.3541844 0 0 0 0.3715615,-0.029008 2.3751574,2.3541844 0 0 0 0.3627473,-0.086272 2.3751574,2.3541844 0 0 0 0.3443358,-0.1410863 2.3751574,2.3541844 0 0 0 0.3176978,-0.1932638 2.3751574,2.3541844 0 0 0 0.283225,-0.2397902 2.3751574,2.3541844 0 0 0 0.2422891,-0.28104245 2.3751574,2.3541844 0 0 0 0.194301,-0.31476001 2.3751574,2.3541844 0 0 0 0.142787,-0.341508 2.3751574,2.3541844 0 0 0 0.08716,-0.35921444 2.3751574,2.3541844 0 0 0 0.02899,-0.36844438 2.3751574,2.3541844 0 0 0 -0.0031,-0.12300316 2.3751574,2.3541844 0 0 0 -0.0098,-0.12300316 2.3751574,2.3541844 0 0 0 -0.01606,-0.12187296 2.3751574,2.3541844 0 0 0 -0.02272,-0.12149623 2.3751574,2.3541844 0 0 0 -0.02879,-0.11980091 2.3751574,2.3541844 0 0 0 -0.03565,-0.1179173 2.3751574,2.3541844 0 0 0 -0.04133,-0.116222 2.3751574,2.3541844 0 0 0 -0.0476,-0.1137732 2.3751574,2.3541844 0 0 0 -0.05386,-0.1115128 2.3751574,2.3541844 0 0 0 -0.05876,-0.1081222 2.3751574,2.3541844 0 0 0 -0.06522,-0.1052968 2.3751574,2.3541844 0 0 0 -0.07032,-0.101341 2.3751574,2.3541844 0 0 0 -0.0758,-0.097762 2.3751574,2.3541844 0 0 0 -0.0807,-0.093995 2.3751574,2.3541844 0 0 0 -0.08579,-0.089286 2.3751574,2.3541844 0 0 0 -0.089903,-0.084765 2.3751574,2.3541844 0 0 0 -0.094604,-0.080244 2.3751574,2.3541844 0 0 0 -0.098717,-0.074781 2.3751574,2.3541844 0 0 0 -0.1028307,-0.069884 2.3751574,2.3541844 0 0 0 -0.1059645,-0.06461 2.3751574,2.3541844 0 0 0 -0.1089026,-0.05877 2.3751574,2.3541844 0 0 0 -0.1122323,-0.052742 2.3751574,2.3541844 0 0 0 -0.1151703,-0.047657 2.3751574,2.3541844 0 0 0 -0.1167373,-0.040687 2.3751574,2.3541844 0 0 0 -0.1194794,-0.035224 2.3751574,2.3541844 0 0 0 -0.1208505,-0.029008 2.3751574,2.3541844 0 0 0 -0.1226133,-0.022227 2.3751574,2.3541844 0 0 0 -0.1228092,-0.016011 2.3751574,2.3541844 0 0 0 -0.1241803,-0.0098 2.3751574,2.3541844 0 0 0 -0.1243761,-0.00301 z m 0.06307,0.083635 a 2.2702935,2.223105 0 0 1 0.123005,0.0032 2.2702935,2.223105 0 0 1 0.1224175,0.0098 2.2702935,2.223105 0 0 1 0.1220257,0.016576 2.2702935,2.223105 0 0 1 0.1204588,0.022604 2.2702935,2.223105 0 0 1 0.1192835,0.029009 2.2702935,2.223105 0 0 1 0.1179125,0.035224 2.2702935,2.223105 0 0 1 0.1151704,0.041817 2.2702935,2.223105 0 0 1 0.1132116,0.047468 2.2702935,2.223105 0 0 1 0.1100778,0.053308 2.2702935,2.223105 0 0 1 0.1069439,0.059335 2.2702935,2.223105 0 0 1 0.1034182,0.06461 2.2702935,2.223105 0 0 1 0.1002844,0.070261 2.2702935,2.223105 0 0 1 0.095584,0.075535 2.2702935,2.223105 0 0 1 0.09147,0.080621 2.2702935,2.223105 0 0 1 0.08677,0.085142 2.2702935,2.223105 0 0 1 0.082068,0.089474 2.2702935,2.223105 0 0 1 0.07698,0.093995 2.2702935,2.223105 0 0 1 0.07188,0.097762 2.2702935,2.223105 0 0 1 0.0662,0.101341 2.2702935,2.223105 0 0 1 0.06052,0.1047316 2.2702935,2.223105 0 0 1 0.05465,0.1081223 2.2702935,2.223105 0 0 1 0.04857,0.110571 2.2702935,2.223105 0 0 1 0.0425,0.1132081 2.2702935,2.223105 0 0 1 0.03604,0.114715 2.2702935,2.223105 0 0 1 0.02997,0.11678709 2.2702935,2.223105 0 0 1 0.02272,0.118294 2.2702935,2.223105 0 0 1 0.01665,0.1194242 2.2702935,2.223105 0 0 1 0.01038,0.11980094 2.2702935,2.223105 0 0 1 0.0029,0.12036603 2.2702935,2.223105 0 0 1 -0.02781,0.34791246 2.2702935,2.223105 0 0 1 -0.0832,0.33943178 A 2.2702935,2.223105 0 0 1 10.343618,0.54772072 2.2702935,2.223105 0 0 1 10.157543,0.84533939 2.2702935,2.223105 0 0 1 9.9260276,1.1105591 2.2702935,2.223105 0 0 1 9.6551422,1.337352 2.2702935,2.223105 0 0 1 9.3513511,1.5193138 2.2702935,2.223105 0 0 1 9.0226847,1.6530539 2.2702935,2.223105 0 0 1 8.6759985,1.7342397 2.2702935,2.223105 0 0 1 8.32089,1.7617412 2.2702935,2.223105 0 0 1 7.9659773,1.7342397 2.2702935,2.223105 0 0 1 7.6190952,1.6530539 2.2702935,2.223105 0 0 1 7.2900371,1.5193138 2.2702935,2.223105 0 0 1 6.9866377,1.337352 2.2702935,2.223105 0 0 1 6.7153607,1.1105591 2.2702935,2.223105 0 0 1 6.4844324,0.84533939 2.2702935,2.223105 0 0 1 6.2983579,0.54772072 2.2702935,2.223105 0 0 1 6.1618379,0.2258028 2.2702935,2.223105 0 0 1 6.0787899,-0.11363318 2.2702935,2.223105 0 0 1 6.0507809,-0.46154564 2.2702935,2.223105 0 0 1 6.0787899,-0.80926974 2.2702935,2.223105 0 0 1 6.1618379,-1.148329 2.2702935,2.223105 0 0 1 6.2983579,-1.4706236 2.2702935,2.223105 0 0 1 6.4844324,-1.7678656 2.2702935,2.223105 0 0 1 6.7153607,-2.033462 2.2702935,2.223105 0 0 1 6.9866377,-2.2598782 2.2702935,2.223105 0 0 1 7.2900371,-2.4422167 2.2702935,2.223105 0 0 1 7.6190952,-2.57558 2.2702935,2.223105 0 0 1 7.9659773,-2.657143 2.2702935,2.223105 0 0 1 8.32089,-2.684645 Z m 0.1529728,0.2311254 a 1.9599755,1.8770558 0 0 0 -0.3404184,0.028255 1.9599755,1.8770558 0 0 0 -0.3298416,0.084765 1.9599755,1.8770558 0 0 0 -0.3100589,0.1380725 1.9599755,1.8770558 0 0 0 -0.2795035,0.1876128 1.9599755,1.8770558 0 0 0 -0.2418969,0.2315021 1.9599755,1.8770558 0 0 0 -0.1958679,0.2682335 1.9599755,1.8770558 0 0 0 -0.1441588,0.2964885 1.9599755,1.8770558 0 0 0 -0.088336,0.31589021 1.9599755,1.8770558 0 0 0 -0.029968,0.32606197 1.9599755,1.8770558 0 0 0 0.029968,0.32606198 1.9599755,1.8770558 0 0 0 0.088336,0.31570183 A 1.9599755,1.8770558 0 0 0 6.7762761,0.36180393 1.9599755,1.8770558 0 0 0 6.972144,0.6298491 1.9599755,1.8770558 0 0 0 7.2140409,0.86097449 1.9599755,1.8770558 0 0 0 7.4935444,1.048964 1.9599755,1.8770558 0 0 0 7.8036033,1.1870365 1.9599755,1.8770558 0 0 0 8.1334449,1.2718015 1.9599755,1.8770558 0 0 0 8.4738633,1.3002445 1.9599755,1.8770558 0 0 0 8.4777833,1.3000561 1.9599755,1.8770558 0 0 1 8.1410832,1.2718006 1.9599755,1.8770558 0 0 1 7.8114375,1.1870358 1.9599755,1.8770558 0 0 1 7.5013786,1.0489633 1.9599755,1.8770558 0 0 1 7.2218751,0.86097379 1.9599755,1.8770558 0 0 1 6.9799782,0.6298484 1.9599755,1.8770558 0 0 1 6.7841103,0.36180323 1.9599755,1.8770558 0 0 1 6.6399515,0.06512639 1.9599755,1.8770558 0 0 1 6.5516155,-0.25057544 1.9599755,1.8770558 0 0 1 6.5216475,-0.57663742 1.9599755,1.8770558 0 0 1 6.5516155,-0.90269939 1.9599755,1.8770558 0 0 1 6.6399515,-1.2185896 1.9599755,1.8770558 0 0 1 6.7841103,-1.5150781 1.9599755,1.8770558 0 0 1 6.9799782,-1.7833116 1.9599755,1.8770558 0 0 1 7.2218751,-2.0148137 1.9599755,1.8770558 0 0 1 7.5013786,-2.2024265 1.9599755,1.8770558 0 0 1 7.8114375,-2.340499 1.9599755,1.8770558 0 0 1 8.1410832,-2.425264 1.9599755,1.8770558 0 0 1 8.4785637,-2.45333 a 1.9599755,1.8770558 0 0 0 -0.0047,-1.883e-4 z" />
        <path
           id="path25"
           style="fill:#55ddff;fill-opacity:0.99705;stroke:#a47d5f;stroke-width:0;paint-order:markers fill stroke"
           d="m 8.32089,-2.6846441 a 2.2702935,2.223105 0 0 0 -0.3549127,0.027502 2.2702935,2.223105 0 0 0 -0.3468821,0.081563 2.2702935,2.223105 0 0 0 -0.3290581,0.1333633 2.2702935,2.223105 0 0 0 -0.3033994,0.1823385 2.2702935,2.223105 0 0 0 -0.271277,0.2264162 2.2702935,2.223105 0 0 0 -0.2309283,0.2655964 2.2702935,2.223105 0 0 0 -0.1860745,0.297242 2.2702935,2.223105 0 0 0 -0.13652,0.3222946 2.2702935,2.223105 0 0 0 -0.083048,0.33905926 2.2702935,2.223105 0 0 0 -0.028009,0.3477241 2.2702935,2.223105 0 0 0 0.028009,0.34791246 2.2702935,2.223105 0 0 0 0.083048,0.33943598 2.2702935,2.223105 0 0 0 0.13652,0.32191792 A 2.2702935,2.223105 0 0 0 6.4844324,0.84533939 2.2702935,2.223105 0 0 0 6.7153607,1.1105591 2.2702935,2.223105 0 0 0 6.9866377,1.337352 2.2702935,2.223105 0 0 0 7.2900371,1.5193138 2.2702935,2.223105 0 0 0 7.6190952,1.6530539 2.2702935,2.223105 0 0 0 7.9659773,1.7342397 2.2702935,2.223105 0 0 0 8.32089,1.7617412 2.2702935,2.223105 0 0 0 8.6759985,1.7342397 2.2702935,2.223105 0 0 0 9.0226847,1.6530539 2.2702935,2.223105 0 0 0 9.3513511,1.5193138 2.2702935,2.223105 0 0 0 9.6551422,1.337352 2.2702935,2.223105 0 0 0 9.9260276,1.1105591 2.2702935,2.223105 0 0 0 10.157543,0.84533939 2.2702935,2.223105 0 0 0 10.343618,0.54772072 2.2702935,2.223105 0 0 0 10.479942,0.2258028 a 2.2702935,2.223105 0 0 0 0.08324,-0.33943598 2.2702935,2.223105 0 0 0 0.02781,-0.34791246 2.2702935,2.223105 0 0 0 -0.0029,-0.12036603 2.2702935,2.223105 0 0 0 -0.01038,-0.11980094 2.2702935,2.223105 0 0 0 -0.01665,-0.1194242 2.2702935,2.223105 0 0 0 -0.02272,-0.118294 2.2702935,2.223105 0 0 0 -0.02997,-0.11678709 2.2702935,2.223105 0 0 0 -0.03604,-0.114715 2.2702935,2.223105 0 0 0 -0.0425,-0.1132081 2.2702935,2.223105 0 0 0 -0.04857,-0.110571 2.2702935,2.223105 0 0 0 -0.05465,-0.1081223 2.2702935,2.223105 0 0 0 -0.06052,-0.1047316 2.2702935,2.223105 0 0 0 -0.0662,-0.101341 2.2702935,2.223105 0 0 0 -0.07188,-0.097762 2.2702935,2.223105 0 0 0 -0.07698,-0.093995 2.2702935,2.223105 0 0 0 -0.082068,-0.089474 2.2702935,2.223105 0 0 0 -0.08677,-0.085142 2.2702935,2.223105 0 0 0 -0.09147,-0.080621 2.2702935,2.223105 0 0 0 -0.095584,-0.075535 2.2702935,2.223105 0 0 0 -0.1002844,-0.070261 2.2702935,2.223105 0 0 0 -0.1034182,-0.06461 2.2702935,2.223105 0 0 0 -0.1069439,-0.059335 2.2702935,2.223105 0 0 0 -0.1100778,-0.053308 2.2702935,2.223105 0 0 0 -0.1132116,-0.047468 2.2702935,2.223105 0 0 0 -0.1151704,-0.041817 2.2702935,2.223105 0 0 0 -0.1179125,-0.035224 2.2702935,2.223105 0 0 0 -0.1192835,-0.029009 2.2702935,2.223105 0 0 0 -0.1204588,-0.022604 2.2702935,2.223105 0 0 0 -0.1220257,-0.016576 2.2702935,2.223105 0 0 0 -0.1224175,-0.0098 2.2702935,2.223105 0 0 0 -0.123005,-0.0032 z m 0.044462,0.063103 a 2.152096,2.1182415 0 0 1 0.1208505,0.00301 2.152096,2.1182415 0 0 1 0.1204588,0.01036 2.152096,2.1182415 0 0 1 0.1198711,0.016576 2.152096,2.1182415 0 0 1 0.1183043,0.023357 2.152096,2.1182415 0 0 1 0.1163455,0.029385 2.152096,2.1182415 0 0 1 0.1151703,0.036166 2.152096,2.1182415 0 0 1 0.11282,0.042382 2.152096,2.1182415 0 0 1 0.1104695,0.048598 2.152096,2.1182415 0 0 1 0.1069439,0.05425 2.152096,2.1182415 0 0 1 0.1040058,0.060465 2.152096,2.1182415 0 0 1 0.1006761,0.066117 2.152096,2.1182415 0 0 1 0.096171,0.071391 2.152096,2.1182415 0 0 1 0.09245,0.076853 2.152096,2.1182415 0 0 1 0.087945,0.081751 2.152096,2.1182415 0 0 1 0.082656,0.086272 2.152096,2.1182415 0 0 1 0.077955,0.090416 2.152096,2.1182415 0 0 1 0.07247,0.095125 2.152096,2.1182415 0 0 1 0.06718,0.098704 2.152096,2.1182415 0 0 1 0.06092,0.1022829 2.152096,2.1182415 0 0 1 0.05582,0.1054851 2.152096,2.1182415 0 0 1 0.04897,0.1084989 2.152096,2.1182415 0 0 1 0.0429,0.1111361 2.152096,2.1182415 0 0 1 0.03682,0.1130198 2.152096,2.1182415 0 0 1 0.03036,0.1152801 2.152096,2.1182415 0 0 1 0.0239,0.11622197 2.152096,2.1182415 0 0 1 0.01645,0.11791727 2.152096,2.1182415 0 0 1 0.01038,0.11829401 2.152096,2.1182415 0 0 1 0.0031,0.1188591 2.152096,2.1182415 0 0 1 -0.02644,0.33133623 2.152096,2.1182415 0 0 1 -0.07893,0.32342485 2.152096,2.1182415 0 0 1 -0.12925,0.30704188 A 2.152096,2.1182415 0 0 1 10.106814,0.74154958 2.152096,2.1182415 0 0 1 9.8878333,0.99433709 2.152096,2.1182415 0 0 1 9.6308546,1.2102048 2.152096,2.1182415 0 0 1 9.342537,1.3838785 2.152096,2.1182415 0 0 1 9.0309112,1.5110257 2.152096,2.1182415 0 0 1 8.7028324,1.5890093 2.152096,2.1182415 0 0 1 8.365352,1.6148155 2.152096,2.1182415 0 0 1 8.0290468,1.5890093 2.152096,2.1182415 0 0 1 7.7007722,1.5110257 2.152096,2.1182415 0 0 1 7.3887546,1.3838785 2.152096,2.1182415 0 0 1 7.1008287,1.2102048 2.152096,2.1182415 0 0 1 6.8440459,0.99433709 2.152096,2.1182415 0 0 1 6.6244779,0.74154958 2.152096,2.1182415 0 0 1 6.4481968,0.45843511 2.152096,2.1182415 0 0 1 6.318924,0.15139813 2.152096,2.1182415 0 0 1 6.240381,-0.17202672 2.152096,2.1182415 0 0 1 6.213547,-0.50336295 2.152096,2.1182415 0 0 1 6.240381,-0.83451081 2.152096,2.1182415 0 0 1 6.318924,-1.158124 a 2.152096,2.1182415 0 0 1 0.1292728,-0.3068486 2.152096,2.1182415 0 0 1 0.1762811,-0.2833029 2.152096,2.1182415 0 0 1 0.219568,-0.2525991 2.152096,2.1182415 0 0 1 0.2567828,-0.2160561 2.152096,2.1182415 0 0 1 0.2879259,-0.1736737 2.152096,2.1182415 0 0 1 0.3120176,-0.1271472 2.152096,2.1182415 0 0 1 0.3282746,-0.077984 2.152096,2.1182415 0 0 1 0.3363052,-0.025806 z" />
        <path
           id="path26"
           style="fill:#0066ff;fill-opacity:0.99705;stroke:#a47d5f;stroke-width:0;paint-order:markers fill stroke"
           d="m 8.365352,-2.6215414 a 2.152096,2.1182415 0 0 0 -0.3363052,0.025806 2.152096,2.1182415 0 0 0 -0.3282746,0.077984 2.152096,2.1182415 0 0 0 -0.3120176,0.1271472 2.152096,2.1182415 0 0 0 -0.2879259,0.1736737 2.152096,2.1182415 0 0 0 -0.2567828,0.2160561 2.152096,2.1182415 0 0 0 -0.219568,0.2525991 A 2.152096,2.1182415 0 0 0 6.4481968,-1.4649726 2.152096,2.1182415 0 0 0 6.318924,-1.158124 2.152096,2.1182415 0 0 0 6.240381,-0.83451081 2.152096,2.1182415 0 0 0 6.213547,-0.50336295 2.152096,2.1182415 0 0 0 6.240381,-0.17202672 2.152096,2.1182415 0 0 0 6.318924,0.15139813 2.152096,2.1182415 0 0 0 6.4481968,0.45843511 2.152096,2.1182415 0 0 0 6.6244779,0.74154958 2.152096,2.1182415 0 0 0 6.8440459,0.99433709 2.152096,2.1182415 0 0 0 7.1008287,1.2102048 2.152096,2.1182415 0 0 0 7.3887546,1.3838785 2.152096,2.1182415 0 0 0 7.7007722,1.5110257 2.152096,2.1182415 0 0 0 8.0290468,1.5890093 2.152096,2.1182415 0 0 0 8.365352,1.6148155 2.152096,2.1182415 0 0 0 8.7028324,1.5890093 2.152096,2.1182415 0 0 0 9.0309112,1.5110257 2.152096,2.1182415 0 0 0 9.342537,1.3838785 2.152096,2.1182415 0 0 0 9.6308546,1.2102048 2.152096,2.1182415 0 0 0 9.8878333,0.99433709 2.152096,2.1182415 0 0 0 10.106814,0.74154958 a 2.152096,2.1182415 0 0 0 0.176281,-0.28311447 2.152096,2.1182415 0 0 0 0.129273,-0.30703698 2.152096,2.1182415 0 0 0 0.07893,-0.32342485 2.152096,2.1182415 0 0 0 0.02644,-0.33133623 2.152096,2.1182415 0 0 0 -0.0031,-0.1188591 2.152096,2.1182415 0 0 0 -0.01038,-0.11829401 2.152096,2.1182415 0 0 0 -0.01645,-0.11791727 2.152096,2.1182415 0 0 0 -0.0239,-0.11622197 2.152096,2.1182415 0 0 0 -0.03036,-0.1152801 2.152096,2.1182415 0 0 0 -0.03682,-0.1130198 2.152096,2.1182415 0 0 0 -0.0429,-0.1111361 2.152096,2.1182415 0 0 0 -0.04897,-0.1084989 2.152096,2.1182415 0 0 0 -0.05582,-0.1054851 2.152096,2.1182415 0 0 0 -0.06092,-0.1022829 2.152096,2.1182415 0 0 0 -0.06718,-0.098704 2.152096,2.1182415 0 0 0 -0.07247,-0.095125 2.152096,2.1182415 0 0 0 -0.077955,-0.090416 2.152096,2.1182415 0 0 0 -0.082656,-0.086272 2.152096,2.1182415 0 0 0 -0.087945,-0.081751 2.152096,2.1182415 0 0 0 -0.09245,-0.076853 2.152096,2.1182415 0 0 0 -0.096171,-0.071391 2.152096,2.1182415 0 0 0 -0.1006761,-0.066117 2.152096,2.1182415 0 0 0 -0.1040058,-0.060465 2.152096,2.1182415 0 0 0 -0.1069439,-0.05425 2.152096,2.1182415 0 0 0 -0.1104695,-0.048598 2.152096,2.1182415 0 0 0 -0.11282,-0.042382 2.152096,2.1182415 0 0 0 -0.1151703,-0.036166 2.152096,2.1182415 0 0 0 -0.1163455,-0.029385 2.152096,2.1182415 0 0 0 -0.1183043,-0.023357 2.152096,2.1182415 0 0 0 -0.1198711,-0.016576 2.152096,2.1182415 0 0 0 -0.1204588,-0.01036 2.152096,2.1182415 0 0 0 -0.1208505,-0.00301 z m 0.055235,0.083635 h 1.958e-4 a 2.06581,1.9819194 0 0 1 0.115758,0.0032 2.06581,1.9819194 0 0 1 0.1151703,0.00923 2.06581,1.9819194 0 0 1 0.1147786,0.015634 2.06581,1.9819194 0 0 1 0.1136034,0.021662 2.06581,1.9819194 0 0 1 0.1122323,0.027878 2.06581,1.9819194 0 0 1 0.1104695,0.033529 2.06581,1.9819194 0 0 1 0.1085108,0.039745 2.06581,1.9819194 0 0 1 0.105377,0.045585 2.06581,1.9819194 0 0 1 0.1028306,0.051236 2.06581,1.9819194 0 0 1 0.1002844,0.056322 2.06581,1.9819194 0 0 1 0.096171,0.061972 2.06581,1.9819194 0 0 1 0.09245,0.066682 2.06581,1.9819194 0 0 1 0.088924,0.071767 2.06581,1.9819194 0 0 1 0.083636,0.076477 2.06581,1.9819194 0 0 1 0.079718,0.080621 2.06581,1.9819194 0 0 1 0.074822,0.084765 2.06581,1.9819194 0 0 1 0.06973,0.088909 2.06581,1.9819194 0 0 1 0.06464,0.092488 2.06581,1.9819194 0 0 1 0.05896,0.095502 2.06581,1.9819194 0 0 1 0.05269,0.098704 2.06581,1.9819194 0 0 1 0.0476,0.1019061 2.06581,1.9819194 0 0 1 0.04133,0.1037898 2.06581,1.9819194 0 0 1 0.03506,0.1060502 2.06581,1.9819194 0 0 1 0.02899,0.10736878 2.06581,1.9819194 0 0 1 0.02272,0.10906406 2.06581,1.9819194 0 0 1 0.01606,0.11000589 2.06581,1.9819194 0 0 1 0.0098,0.11075935 2.06581,1.9819194 0 0 1 0.0031,0.11151282 2.06581,1.9819194 0 0 1 -0.02527,0.30948575 2.06581,1.9819194 0 0 1 -0.0756,0.30289292 A 2.06581,1.9819194 0 0 1 10.261353,0.3440968 2.06581,1.9819194 0 0 1 10.091928,0.60931648 2.06581,1.9819194 0 0 1 9.880978,0.84533939 2.06581,1.9819194 0 0 1 9.6345761,1.0474564 2.06581,1.9819194 0 0 1 9.3585982,1.2102048 2.06581,1.9819194 0 0 1 9.0589203,1.3290639 2.06581,1.9819194 0 0 1 8.743573,1.4019617 2.06581,1.9819194 0 0 1 8.4205868,1.4262609 2.06581,1.9819194 0 0 1 8.0972088,1.4019617 2.06581,1.9819194 0 0 1 7.7818615,1.3290639 2.06581,1.9819194 0 0 1 7.4827712,1.2102048 2.06581,1.9819194 0 0 1 7.2062057,1.0474564 2.06581,1.9819194 0 0 1 6.9598038,0.84533939 2.06581,1.9819194 0 0 1 6.7494417,0.60931648 2.06581,1.9819194 0 0 1 6.5800159,0.3440968 2.06581,1.9819194 0 0 1 6.4560315,0.05683827 2.06581,1.9819194 0 0 1 6.3800348,-0.24605465 2.06581,1.9819194 0 0 1 6.354572,-0.5555404 2.06581,1.9819194 0 0 1 6.380035,-0.86559124 2.06581,1.9819194 0 0 1 6.456032,-1.1684842 2.06581,1.9819194 0 0 1 6.5800164,-1.4557427 2.06581,1.9819194 0 0 1 6.7494422,-1.720774 2.06581,1.9819194 0 0 1 6.9598043,-1.9569853 2.06581,1.9819194 0 0 1 7.2062062,-2.1591023 2.06581,1.9819194 0 0 1 7.4827717,-2.3218507 2.06581,1.9819194 0 0 1 7.781862,-2.4407098 2.06581,1.9819194 0 0 1 8.0972093,-2.5136078 2.06581,1.9819194 0 0 1 8.420587,-2.5379064 Z" />
        <path
           id="path27"
           style="fill:#660080;fill-opacity:0.99705;stroke:#a47d5f;stroke-width:0;paint-order:markers fill stroke"
           d="m 8.4206746,-2.5378296 a 2.06581,1.9819194 0 0 0 -0.3234944,0.024288 2.06581,1.9819194 0 0 0 -0.3152263,0.072864 2.06581,1.9819194 0 0 0 -0.2992065,0.1188558 2.06581,1.9819194 0 0 0 -0.2764689,0.1627808 2.06581,1.9819194 0 0 0 -0.2464966,0.2020548 2.06581,1.9819194 0 0 0 -0.2103231,0.2361613 2.06581,1.9819194 0 0 0 -0.1694987,0.2651001 2.06581,1.9819194 0 0 0 -0.1240234,0.287321 2.06581,1.9819194 0 0 0 -0.075964,0.30282386 2.06581,1.9819194 0 0 0 -0.025321,0.31005859 2.06581,1.9819194 0 0 0 0.025321,0.30954183 2.06581,1.9819194 0 0 0 0.075964,0.3028239 2.06581,1.9819194 0 0 0 0.1240234,0.28732096 2.06581,1.9819194 0 0 0 0.1694987,0.2651001 A 2.06581,1.9819194 0 0 0 6.9597819,0.84542643 2.06581,1.9819194 0 0 0 7.2062785,1.0474813 2.06581,1.9819194 0 0 0 7.4827474,1.210262 2.06581,1.9819194 0 0 0 7.7819539,1.3291178 2.06581,1.9819194 0 0 0 8.0971802,1.4019816 2.06581,1.9819194 0 0 0 8.4206746,1.4262695 2.06581,1.9819194 0 0 0 8.7436523,1.4019816 2.06581,1.9819194 0 0 0 9.0588786,1.3291178 2.06581,1.9819194 0 0 0 9.3586019,1.210262 2.06581,1.9819194 0 0 0 9.634554,1.0474813 2.06581,1.9819194 0 0 0 9.8810506,0.84542643 2.06581,1.9819194 0 0 0 10.09189,0.60926514 a 2.06581,1.9819194 0 0 0 0.169499,-0.2651001 2.06581,1.9819194 0 0 0 0.124024,-0.28732096 2.06581,1.9819194 0 0 0 0.07545,-0.3028239 2.06581,1.9819194 0 0 0 0.02532,-0.30954183 2.06581,1.9819194 0 0 0 -0.0031,-0.11162109 2.06581,1.9819194 0 0 0 -0.0098,-0.11058757 2.06581,1.9819194 0 0 0 -0.01602,-0.1100708 2.06581,1.9819194 0 0 0 -0.02274,-0.10903727 2.06581,1.9819194 0 0 0 -0.02894,-0.10748702 2.06581,1.9819194 0 0 0 -0.03514,-0.1059366 2.06581,1.9819194 0 0 0 -0.04134,-0.1038697 2.06581,1.9819194 0 0 0 -0.04754,-0.1018025 2.06581,1.9819194 0 0 0 -0.05271,-0.098702 2.06581,1.9819194 0 0 0 -0.05891,-0.095601 2.06581,1.9819194 0 0 0 -0.0646,-0.092501 2.06581,1.9819194 0 0 0 -0.06976,-0.088883 2.06581,1.9819194 0 0 0 -0.074931,-0.084749 2.06581,1.9819194 0 0 0 -0.079582,-0.080615 2.06581,1.9819194 0 0 0 -0.083716,-0.076481 2.06581,1.9819194 0 0 0 -0.088883,-0.07183 2.06581,1.9819194 0 0 0 -0.092501,-0.066663 2.06581,1.9819194 0 0 0 -0.096118,-0.062012 2.06581,1.9819194 0 0 0 -0.1002523,-0.056327 2.06581,1.9819194 0 0 0 -0.1028361,-0.05116 2.06581,1.9819194 0 0 0 -0.1054199,-0.045475 2.06581,1.9819194 0 0 0 -0.1085206,-0.039791 2.06581,1.9819194 0 0 0 -0.1105875,-0.03359 2.06581,1.9819194 0 0 0 -0.1121379,-0.027905 2.06581,1.9819194 0 0 0 -0.1136881,-0.021704 2.06581,1.9819194 0 0 0 -0.1147217,-0.015503 2.06581,1.9819194 0 0 0 -0.1152384,-0.0093 2.06581,1.9819194 0 0 0 -0.1157553,-0.0031 z m 0.053227,0.084233 a 1.9599755,1.8770558 0 0 1 0.1142049,0.0031 1.9599755,1.8770558 0 0 1 0.1136881,0.0093 1.9599755,1.8770558 0 0 1 0.1121379,0.01602 1.9599755,1.8770558 0 0 1 0.1121378,0.022221 1.9599755,1.8770558 0 0 1 0.1100709,0.027905 1.9599755,1.8770558 0 0 1 0.1085205,0.034623 1.9599755,1.8770558 0 0 1 0.1059366,0.040308 1.9599755,1.8770558 0 0 1 0.1028361,0.045992 1.9599755,1.8770558 0 0 1 0.1002523,0.051676 1.9599755,1.8770558 0 0 1 0.097152,0.057361 1.9599755,1.8770558 0 0 1 0.093534,0.062528 1.9599755,1.8770558 0 0 1 0.0894,0.067696 1.9599755,1.8770558 0 0 1 0.085266,0.072864 1.9599755,1.8770558 0 0 1 0.080615,0.076998 1.9599755,1.8770558 0 0 1 0.075448,0.081649 1.9599755,1.8770558 0 0 1 0.071313,0.085783 1.9599755,1.8770558 0 0 1 0.06511,0.0894 1.9599755,1.8770558 0 0 1 0.05994,0.093018 1.9599755,1.8770558 0 0 1 0.05374,0.096118 1.9599755,1.8770558 0 0 1 0.04858,0.098702 1.9599755,1.8770558 0 0 1 0.04186,0.1018025 1.9599755,1.8770558 0 0 1 0.03617,0.1033529 1.9599755,1.8770558 0 0 1 0.02946,0.1054199 1.9599755,1.8770558 0 0 1 0.02274,0.10697023 1.9599755,1.8770558 0 0 1 0.01654,0.10800374 1.9599755,1.8770558 0 0 1 0.0098,0.10903727 1.9599755,1.8770558 0 0 1 0.0036,0.10903728 1.9599755,1.8770558 0 0 1 -0.02997,0.32607828 1.9599755,1.8770558 0 0 1 -0.08837,0.315743 A 1.9599755,1.8770558 0 0 1 10.171472,0.36173503 1.9599755,1.8770558 0 0 1 9.9751017,0.62993571 1.9599755,1.8770558 0 0 1 9.7337728,0.86092936 1.9599755,1.8770558 0 0 1 9.4536865,1.0490316 1.9599755,1.8770558 0 0 1 9.1446615,1.1870076 1.9599755,1.8770558 0 0 1 8.8139323,1.271757 1.9599755,1.8770558 0 0 1 8.4739014,1.300179 1.9599755,1.8770558 0 0 1 8.1333537,1.271757 1.9599755,1.8770558 0 0 1 7.803658,1.1870076 1.9599755,1.8770558 0 0 1 7.4935994,1.0490316 1.9599755,1.8770558 0 0 1 7.2140299,0.86092936 1.9599755,1.8770558 0 0 1 6.9721842,0.62993571 1.9599755,1.8770558 0 0 1 6.7763306,0.36173503 1.9599755,1.8770558 0 0 1 6.6321533,0.0651123 1.9599755,1.8770558 0 0 1 6.5437866,-0.2506307 1.9599755,1.8770558 0 0 1 6.5138143,-0.57670898 1.9599755,1.8770558 0 0 1 6.5437866,-0.90278727 1.9599755,1.8770558 0 0 1 6.6321533,-1.2185303 1.9599755,1.8770558 0 0 1 6.7763306,-1.515153 1.9599755,1.8770558 0 0 1 6.9721842,-1.7833537 1.9599755,1.8770558 0 0 1 7.2140299,-2.0148641 1.9599755,1.8770558 0 0 1 7.4935994,-2.2024495 1.9599755,1.8770558 0 0 1 7.803658,-2.3404256 1.9599755,1.8770558 0 0 1 8.1333537,-2.425175 1.9599755,1.8770558 0 0 1 8.4739016,-2.4535966 Z" />
      </g>
    </g>
    <g
       id="g37">
      <g
         id="g2"
         transform="matrix(1.1046318,0,0,1.1071686,-0.71235837,0.00741843)">
        <path
           d="M 7.8300896,1.3051714 A 0.24335054,0.26045619 0 0 0 7.6200698,1.1871951 C 7.6559333,1.0025259 7.4458474,0.8503525 7.3014496,0.96450992 A 0.26182371,0.2802279 0 0 0 7.2162144,1.0778574 0.03218659,0.03444906 0 0 1 7.1763124,1.0963006 0.03181533,0.0340517 0 0 1 7.1564399,1.0495632 0.314403,0.33650311 0 0 1 7.3370015,0.86817612 0.32896214,0.35208567 0 0 0 7.0673003,0.66502962 C 6.8347489,0.63490909 6.6294592,0.83356452 6.6391122,1.0636396 6.3174768,1.0890803 6.2599443,1.5904961 6.5324687,1.7058697 a 0.34839207,0.37288135 0 0 0 0.1425132,0.030018 h 0.8831269 a 0.31562706,0.33781325 0 0 0 0.053482,-0.00384 C 7.8688977,1.6884155 7.875094,1.4967923 7.8656374,1.4161635 A 0.25738172,0.27547366 0 0 0 7.8300896,1.3051685 Z M 7.7377976,1.470966 A 0.09066635,0.0970395 0 0 1 7.6725756,1.563813 0.03305454,0.03537802 0 0 1 7.6543146,1.499587 c 0.020871,-0.014661 0.020217,-0.02967 0.016957,-0.057243 a 0.05414706,0.05795318 0 0 0 -0.00685,-0.024783 0.03261972,0.03491264 0 0 1 0.055115,-0.037346 0.1483471,0.15877477 0 0 1 0.018261,0.090751 z M 6.8484764,0.84967297 c 0.030093,-0.0321095 0.2019292,-0.1092962 0.2070848,-0.0282744 a 0.03271119,0.03501054 0 0 1 -0.032614,0.0349062 0.19774648,0.21164653 0 0 0 -0.1979523,0.15497663 0.03279963,0.0351052 0 0 1 -0.053809,0.017798 0.03232177,0.03459374 0 0 1 -0.00946,-0.0335063 0.24156182,0.25854178 0 0 1 0.086748,-0.14590053 z"
           id="path12"
           style="fill:#6f8a91;fill-opacity:0.99705;stroke:#828181;stroke-width:0;stroke-dasharray:none;stroke-opacity:1" />
        <path
           d="m 7.3200413,0.72122372 a 0.40866021,0.43738588 0 0 1 0.083162,0.1343823 0.27624128,0.29565893 0 0 1 0.2846995,0.26911108 0.31774771,0.34008292 0 0 1 0.1004452,0.041188 C 8.0990013,0.96205452 7.9652451,0.44722631 7.5995182,0.44513585 a 0.3604765,0.38581524 0 0 0 -0.3306788,0.22896916 0.33399903,0.35747661 0 0 1 0.051202,0.0471187 z"
           id="path13"
           style="fill:#ff2a7f;fill-opacity:1;stroke:#a47d5f;stroke-width:0;stroke-dasharray:none;stroke-opacity:1" />
        <path
           d="m 7.5996734,0.39992917 a 0.03261367,0.03490616 0 0 0 0.032612,-0.034904 v -0.1840297 a 0.032612,0.03490437 0 0 0 -0.065224,0 v 0.1840297 a 0.03261367,0.03490616 0 0 0 0.032612,0.034904 z"
           id="path14"
           style="fill:#ff2a7f;stroke:#828181;stroke-width:0;stroke-dasharray:none;stroke-opacity:1" />
        <path
           d="m 7.2667725,0.5270697 a 0.03261434,0.03490688 0 0 0 0.046114,-0.049358 L 7.1912939,0.34757322 a 0.03261434,0.03490688 0 0 0 -0.046113,0.0493572 z"
           id="path15"
           style="fill:#ff2a7f;fill-opacity:1;stroke:#828181;stroke-width:0;stroke-dasharray:none;stroke-opacity:1" />
        <path
           d="m 7.9325744,1.1409595 a 0.03261434,0.03490688 0 0 0 -0.046113,0.049358 L 8.008038,1.3204397 a 0.03261434,0.03490688 0 0 0 0.046113,-0.049358 z"
           id="path16"
           style="fill:#ff0066;stroke:#828181;stroke-width:0;stroke-dasharray:none;stroke-opacity:1" />
        <path
           d="M 7.909517,0.53729762 A 0.03250673,0.0347917 0 0 0 7.9325744,0.5270719 L 8.0541521,0.39693121 a 0.03261434,0.03490688 0 0 0 -0.046116,-0.049355 L 7.8864595,0.4777147 a 0.03282788,0.03513543 0 0 0 0.023058,0.0595829 z"
           id="path17"
           style="fill:#ff2a7f;stroke:#828181;stroke-width:0;stroke-dasharray:none;stroke-opacity:1" />
        <path
           d="M 8.3052657,0.85130511 H 8.0712521 a 0.04438887,0.03396001 0 0 0 0,0.0679129 h 0.2340136 a 0.04438887,0.03396001 0 0 0 0,-0.0679129 z"
           id="path6-9"
           style="fill:#ff0066;stroke:#828181;stroke-width:0;stroke-dasharray:none;stroke-opacity:1" />
      </g>
      <path
         d="M 7.5706625,2.4683975 A 0.60495733,0.37410472 0 0 0 7.0485625,2.298943 C 7.1377169,2.0336953 6.615455,1.8151221 6.2564886,1.9790912 A 0.65088072,0.40250367 0 0 0 6.0445978,2.1418968 0.08001425,0.04948069 0 0 1 5.9454036,2.1683876 0.07909132,0.04890996 0 0 1 5.8960051,2.1012566 0.78159019,0.48333424 0 0 1 6.3448709,1.8407219 0.81778353,0.50571615 0 0 0 5.6744077,1.5489342 C 5.0962937,1.505671 4.5859538,1.7910083 4.609951,2.1214748 3.8103811,2.1580173 3.6673583,2.8782224 4.3448401,3.043939 A 0.86608538,0.53558589 0 0 0 4.69912,3.0870545 h 2.1954112 a 0.78463325,0.48521604 0 0 0 0.132952,-0.00552 C 7.6671363,3.018866 7.6825405,2.7436289 7.6590309,2.6278179 A 0.63983809,0.39567495 0 0 0 7.5706625,2.4683913 Z M 7.341229,2.7065362 A 0.22539203,0.13938211 0 0 1 7.1790872,2.8398956 0.08217194,0.050815 0 0 1 7.1336931,2.7476451 c 0.051882,-0.021058 0.050259,-0.042616 0.042155,-0.082221 a 0.13460689,0.08324071 0 0 0 -0.017028,-0.035596 0.08109101,0.05014656 0 0 1 0.137013,-0.053642 0.3687835,0.22805519 0 0 1 0.045396,0.1303501 z M 5.1304205,1.814146 C 5.2052278,1.768025 5.6324058,1.6571585 5.6452221,1.7735339 a 0.08131839,0.05028718 0 0 1 -0.081076,0.050137 0.4915879,0.30399723 0 0 0 -0.4920998,0.2226 0.08153825,0.05042314 0 0 1 -0.133766,0.025565 0.08035032,0.04968852 0 0 1 -0.023513,-0.048126 0.60051065,0.37135493 0 0 1 0.2156521,-0.2095631 z"
         id="path11"
         style="fill:#55ddff;fill-opacity:0.362832;stroke:#828181;stroke-width:0;stroke-dasharray:none;stroke-opacity:1" />
      <path
         d="M 4.7607056,0.98846444 A 0.66188549,0.3438772 0 0 0 4.1894747,0.83270179 C 4.2870188,0.58888594 3.7156101,0.38797341 3.3228639,0.53869388 A 0.71213039,0.36998154 0 0 0 3.0910345,0.68834492 0.08754381,0.04548268 0 0 1 2.9825053,0.71269519 0.08653403,0.04495805 0 0 1 2.9284575,0.65098831 0.85514004,0.44428102 0 0 1 3.4195644,0.41150479 0.89473927,0.46485448 0 0 0 2.6860078,0.1432934 C 2.0534919,0.10352588 1.4951273,0.36580795 1.5213833,0.66957293 0.64657098,0.70316278 0.49009004,1.3651755 1.2313248,1.5175023 a 0.94758636,0.49231081 0 0 0 0.3876185,0.039632 h 2.4020054 a 0.85846934,0.44601078 0 0 0 0.145463,-0.00507 C 4.8662589,1.4944555 4.8831115,1.2414575 4.85739,1.1350041 A 0.70004865,0.36370456 0 0 0 4.7607056,0.98845871 Z M 4.5096811,1.2073616 a 0.24660203,0.12812009 0 0 1 -0.1773982,0.122584 0.08990455,0.04670917 0 0 1 -0.049666,-0.084797 c 0.056764,-0.019356 0.054988,-0.039173 0.046121,-0.075577 a 0.14727376,0.07651489 0 0 0 -0.018629,-0.03272 0.08872189,0.04609474 0 0 1 0.1499057,-0.049308 0.40348706,0.20962842 0 0 1 0.049666,0.119818 z M 2.0908295,0.38707625 C 2.1726766,0.34468179 2.6400543,0.24277316 2.6540758,0.3497455 A 0.08897068,0.04622399 0 0 1 2.5653698,0.3958313 0.53784769,0.27943436 0 0 0 2.0269624,0.60044525 0.08921123,0.04634897 0 0 1 1.880609,0.62394425 0.08791151,0.04567371 0 0 1 1.854883,0.57970665 0.65702036,0.34134961 0 0 1 2.0908295,0.38707625 Z"
         id="path9"
         style="fill:#55ddff;fill-opacity:0.433628;stroke:#828181;stroke-width:0;stroke-dasharray:none;stroke-opacity:1" />
      <text
         xml:space="preserve"
         style="font-size:1.44894px;font-family:'Li Fazlay Munnisha Unicode';-inkscape-font-specification:'Li Fazlay Munnisha Unicode';fill:#333333;stroke:#a47d5f;stroke-width:0;paint-order:markers fill stroke"
         x="2.8118608"
         y="1.6644059"
         id="text4"
         transform="scale(1.0357271,0.96550529)"><tspan
           id="tspan4"
           style="font-style:normal;font-variant:normal;font-weight:800;font-stretch:normal;font-family:'Noto Serif Bengali';-inkscape-font-specification:'Noto Serif Bengali Ultra-Bold';fill:#333333;stroke-width:0"
           x="2.8118608"
           y="1.6644059"></tspan></text>
      <text
         xml:space="preserve"
         style="font-size:1.24638px;font-family:'Li Fazlay Munnisha Unicode';-inkscape-font-specification:'Li Fazlay Munnisha Unicode';fill:#333333;stroke:#a47d5f;stroke-width:0;paint-order:markers fill stroke"
         x="3.1802926"
         y="2.8973241"
         id="text6"
         transform="scale(1.0280736,0.97269298)"><tspan
           id="tspan6"
           style="font-style:normal;font-variant:normal;font-weight:800;font-stretch:normal;font-family:'Noto Serif Bengali';-inkscape-font-specification:'Noto Serif Bengali Ultra-Bold';fill:#333333;stroke-width:0"
           x="3.1802926"
           y="2.8973241"></tspan></text>
      <path
         style="font-weight:bold;font-size:2.97585px;font-family:'Noto Serif Bengali';-inkscape-font-specification:'Noto Serif Bengali Bold';fill:#333333;fill-opacity:0.99705;stroke:#a47d5f;stroke-width:0;paint-order:markers fill stroke"
         d="m 0.99710308,2.4662204 c -0.1230018,0 -0.2400519,-0.034718 -0.35115031,-0.1041547 C 0.53683826,2.2906453 0.44855471,2.1835147 0.38110211,2.0406738 0.31364951,1.8958491 0.27992321,1.7153142 0.27992321,1.4990691 c 0,-0.1349052 0.0459624,-0.2340599 0.0896082,-0.3491261 C 0.4470994,1.0430192 0.4884412,0.99934702 0.56737813,0.92724489 0.68023721,0.83796939 0.73701416,0.81535083 0.82357918,0.7601425 0.96535856,0.69788711 1.1202757,0.64954615 1.1202757,0.64954615 L 1.281843,0.62253328 1.476215,0.75213075 H 1.3423017 c -0.091259,0 -0.1815269,0.0218229 -0.2708024,0.0654687 -0.0872916,0.0436458 -0.16664757,0.10514672 -0.23806797,0.18450275 -0.0694365,0.077372 -0.12498571,0.1686315 -0.16664761,0.2737782 -0.0416619,0.1031628 -0.0624928,0.2162451 -0.0624928,0.3392469 0,0.119034 0.0109114,0.2261646 0.0327343,0.3213918 0.0238068,0.095227 0.0615009,0.1745832 0.1130823,0.238068 0.0535653,0.061501 0.12498574,0.1051465 0.21426121,0.1309374 l -0.0862997,0.041662 c -0.0257907,-0.025791 -0.0476136,-0.056541 -0.0654687,-0.092251 -0.0158712,-0.037694 -0.0238068,-0.082332 -0.0238068,-0.1339133 0,-0.07142 0.0247988,-0.1309374 0.0743963,-0.178551 0.0495975,-0.047613 0.11308226,-0.07142 0.19045437,-0.07142 0.093243,0 0.1626798,0.028767 0.2083095,0.0863 0.047613,0.055549 0.07142,0.121018 0.07142,0.1964061 0,0.097211 -0.029758,0.1735913 -0.089275,0.2291405 -0.059517,0.055549 -0.1418492,0.083324 -0.24699552,0.083324 z M 2.6606007,2.4602687 2.455267,2.3323072 C 2.3838466,2.2231927 2.2995309,2.1309413 2.2023198,2.0555531 2.1070926,1.9801649 2.0009539,1.9196559 1.8839038,1.8740262 1.7668537,1.8283965 1.6388921,1.7976461 1.5000191,1.7817749 L 1.3363474,1.3443249 C 1.4494297,1.2709206 1.5654878,1.203468 1.6845218,1.1419671 1.8035559,1.0804662 1.9265577,1.024917 2.0535273,0.9753195 2.1824808,0.925722 2.3144101,0.88306815 2.4493153,0.84735795 L 2.4195568,0.99317461 V 0.75213075 H 1.3214681 l -0.039037,-0.13068954 2.2536511,-0.001773 0.079766,0.13246313 H 2.6873833 V 0.9277059 L 2.6427453,0.8533097 C 2.8054251,0.8652131 2.94529,0.90588305 3.0623401,0.97531955 3.1813742,1.0427721 3.2726336,1.1300637 3.3361184,1.2371943 c 0.065469,0.1051468 0.098203,0.2221969 0.098203,0.3511503 0,0.1368892 -0.03075,0.2440198 -0.092251,0.3213918 -0.059517,0.075388 -0.1418485,0.1130824 -0.2469956,0.1130824 -0.087292,0 -0.1537523,-0.024799 -0.199382,-0.074396 -0.043646,-0.051581 -0.065469,-0.1140741 -0.065469,-0.1874786 0,-0.069436 0.021823,-0.1259775 0.065469,-0.1696234 0.043646,-0.043646 0.1001872,-0.065469 0.1696235,-0.065469 0.063485,0 0.1150661,0.016863 0.1547442,0.050589 0.039678,0.033726 0.063485,0.084315 0.07142,0.1517684 l -0.053565,0.00298 c 0.013887,-0.019839 0.022815,-0.037694 0.026783,-0.053565 0.00595,-0.017855 0.00893,-0.037694 0.00893,-0.059517 0,-0.051581 -0.013887,-0.1001868 -0.041662,-0.1458166 -0.027776,-0.045632 -0.067455,-0.086304 -0.1190366,-0.122014 -0.051581,-0.03571 -0.1130823,-0.063485 -0.1845027,-0.083324 -0.07142,-0.021823 -0.1497845,-0.032734 -0.2350922,-0.032734 -0.019839,0 -0.038686,0.00298 -0.056541,0.00893 L 2.687383,1.1687525 V 2.454317 Z M 2.4195568,2.1478044 V 1.1330396 l 0.05059,0.1041547 c -0.077373,0.023807 -0.1587125,0.053565 -0.2440202,0.089275 -0.085308,0.033726 -0.1686315,0.072412 -0.2499714,0.1160582 -0.08134,0.041662 -0.1577201,0.085308 -0.2291405,0.1309374 l -0.023807,-0.068445 c 0.087292,0.021823 0.1765671,0.056541 0.2678265,0.1041548 0.091259,0.047613 0.1775591,0.1101062 0.258899,0.1874785 0.08134,0.077372 0.1517683,0.1735913 0.2112853,0.2886575 z"
         id="text3"
         transform="scale(0.84461948,1.1839651)"
         aria-label="" />
    </g>
    <rect
       style="opacity:0.62;fill:none;fill-opacity:0.271386;stroke:#605fa4;stroke-width:0;stroke-opacity:1;paint-order:markers fill stroke"
       id="rect43"
       width="8.396841"
       height="5.8982692"
       x="-7.6595573"
       y="1.6384081" />
  </g>
</svg>
