<?xml version="1.0" encoding="UTF-8" standalone="no"?>
<!-- Created with Inkscape (http://www.inkscape.org/) -->

<svg
   width="297mm"
   height="210mm"
   viewBox="0 0 297 210"
   version="1.1"
   id="svg1"
   xml:space="preserve"
   inkscape:export-filename="bitmap.svg"
   inkscape:export-xdpi="96"
   inkscape:export-ydpi="96"
   xmlns:inkscape="http://www.inkscape.org/namespaces/inkscape"
   xmlns:sodipodi="http://sodipodi.sourceforge.net/DTD/sodipodi-0.dtd"
   xmlns="http://www.w3.org/2000/svg"
   xmlns:svg="http://www.w3.org/2000/svg"><sodipodi:namedview
     id="namedview1"
     pagecolor="#ffffff"
     bordercolor="#000000"
     borderopacity="0.25"
     inkscape:showpageshadow="2"
     inkscape:pageopacity="0.0"
     inkscape:pagecheckerboard="0"
     inkscape:deskcolor="#d1d1d1"
     inkscape:document-units="mm" /><defs
     id="defs1" /><g
     inkscape:label="Layer 1"
     inkscape:groupmode="layer"
     id="layer1"><g
       id="g5"><g
         id="g6"
         transform="matrix(3.7222556,0,0,4.8651357,-210.26785,-682.08117)"><path
           d="m 78.524571,157.05404 a 3.3164207,3.5185207 0 0 0 -2.862185,-1.59375 c 0.488754,-2.49471 -2.37433,-4.55043 -4.342206,-3.00827 a 3.5681763,3.7856181 0 0 0 -1.161601,1.53122 0.43864405,0.46537467 0 0 1 -0.543791,0.24915 0.43358446,0.46000675 0 0 1 -0.270811,-0.63138 4.2847355,4.5458439 0 0 1 2.460723,-2.45037 4.48315,4.7563496 0 0 0 -3.675533,-2.74432 c -3.169261,-0.4069 -5.966983,2.27675 -5.835429,5.38485 -4.383301,0.34368 -5.167363,7.11734 -1.453357,8.67593 a 4.7479442,5.0372801 0 0 0 1.942193,0.40551 h 12.035397 a 4.3014174,4.5635424 0 0 0 0.728856,-0.0519 c 3.506627,-0.5894 3.591072,-3.17805 3.462195,-4.26727 A 3.50764,3.7213928 0 0 0 78.524571,157.054 Z m -1.25777,2.23973 a 1.2356158,1.3109133 0 0 1 -0.888864,1.25427 0.45047266,0.47792411 0 0 1 -0.248855,-0.86763 c 0.284419,-0.19805 0.275523,-0.40081 0.231091,-0.7733 a 0.73792493,0.78289349 0 0 0 -0.09334,-0.33479 0.4445469,0.47163723 0 0 1 0.751114,-0.50451 2.0216985,2.1448992 0 0 1 0.248859,1.22596 z m -12.119815,-8.39309 c 0.410106,-0.43377 2.751924,-1.47649 2.822186,-0.38196 a 0.44579346,0.47295976 0 0 1 -0.444465,0.47155 2.6949212,2.8591476 0 0 0 -2.697726,2.09359 0.44699878,0.47423853 0 0 1 -0.733314,0.24044 0.4404864,0.46732929 0 0 1 -0.1289,-0.45264 3.2920439,3.4926585 0 0 1 1.182219,-1.97098 z"
           id="path1"
           style="fill:#666666;stroke:#828181;stroke-width:0;stroke-dasharray:none;stroke-opacity:1" /><path
           d="m 71.573549,149.16545 a 5.5692881,5.9086761 0 0 1 1.133338,1.81538 3.7646614,3.9940769 0 0 1 3.879932,3.63544 4.3303176,4.5942037 0 0 1 1.368883,0.55641 c 4.233641,-2.75383 2.410792,-9.70868 -2.573394,-9.73692 a 4.9126328,5.2120047 0 0 0 -4.506546,3.09316 4.5517936,4.8291763 0 0 1 0.697787,0.63653 z"
           id="path2"
           style="fill:#ff6913;fill-opacity:1;stroke:#a47d5f;stroke-width:0;stroke-dasharray:none;stroke-opacity:1" /><path
           d="m 75.38442,144.82506 a 0.4444644,0.47154971 0 0 0 0.444442,-0.47152 v -2.48607 a 0.44444149,0.4715254 0 0 0 -0.888879,0 v 2.48607 a 0.4444644,0.47154971 0 0 0 0.444437,0.47152 z"
           id="path3"
           style="fill:#ff7f2a;stroke:#828181;stroke-width:0;stroke-dasharray:none;stroke-opacity:1" /><path
           d="m 70.847595,146.54261 a 0.44447357,0.47155944 0 0 0 0.628442,-0.66678 l -1.657078,-1.75805 a 0.44447357,0.47155944 0 0 0 -0.628438,0.66677 z"
           id="path4"
           style="fill:#ff7f2a;fill-opacity:1;stroke:#828181;stroke-width:0;stroke-dasharray:none;stroke-opacity:1" /><path
           d="m 79.921251,154.83569 a 0.44447357,0.47155944 0 0 0 -0.628429,0.66678 l 1.656858,1.75783 a 0.44447357,0.47155944 0 0 0 0.628443,-0.66678 z"
           id="path5"
           style="fill:#ff7f2a;stroke:#828181;stroke-width:0;stroke-dasharray:none;stroke-opacity:1" /><path
           d="m 83.699413,150.21763 h -2.343266 a 0.44448274,0.47156916 0 0 0 0,0.94304 h 2.343266 a 0.44448274,0.47156916 0 0 0 0,-0.94304 z"
           id="path6"
           style="fill:#ff7f2a;stroke:#828181;stroke-width:0;stroke-dasharray:none;stroke-opacity:1" /><path
           d="m 79.60702,146.68078 a 0.44300702,0.47000352 0 0 0 0.314231,-0.13814 l 1.656881,-1.75808 a 0.44447357,0.47155944 0 0 0 -0.628484,-0.66674 l -1.656858,1.75805 a 0.44738375,0.47464696 0 0 0 0.31423,0.80491 z"
           id="path7"
           style="fill:#ff7f2a;stroke:#828181;stroke-width:0;stroke-dasharray:none;stroke-opacity:1" /><text
           xml:space="preserve"
           style="font-style:normal;font-variant:normal;font-weight:normal;font-stretch:normal;font-size:20.231px;font-family:'Li Fazlay Munnisha Unicode';-inkscape-font-specification:'Li Fazlay Munnisha Unicode';fill:#13293c;fill-opacity:1;stroke-width:34.0137;paint-order:markers fill stroke"
           x="53.597328"
           y="191.5835"
           id="text2"
           transform="scale(1.0870409,0.91992858)"><tspan
             sodipodi:role="line"
             id="tspan2"
             style="fill:#13293c;fill-opacity:1;stroke-width:34.0137"
             x="53.597328"
             y="191.5835">কেরিয়ার</tspan></text><text
           xml:space="preserve"
           style="font-style:normal;font-variant:normal;font-weight:normal;font-stretch:normal;font-size:15.422px;font-family:'Li Fazlay Munnisha Unicode';-inkscape-font-specification:'Li Fazlay Munnisha Unicode';fill:#13283a;fill-opacity:1;stroke-width:25.9285;paint-order:markers fill stroke"
           x="83.669678"
           y="162.43767"
           id="text3"
           transform="scale(1.0247012,0.97589425)"><tspan
             sodipodi:role="line"
             id="tspan3"
             style="fill:#13283a;fill-opacity:1;stroke-width:25.9285"
             x="83.669678"
             y="162.43767">গাইডেন্স</tspan></text></g></g></g></svg>
