<?xml version="1.0" encoding="UTF-8" standalone="no"?>
<!-- Created with Inkscape (http://www.inkscape.org/) -->

<svg
   width="8.4666662mm"
   height="3.175mm"
   viewBox="0 0 8.4666659 3.1749998"
   version="1.1"
   id="svg1"
   sodipodi:docname="logo2.svg"
   inkscape:export-filename="../../../Downloads/logo2.svg"
   inkscape:export-xdpi="96"
   inkscape:export-ydpi="96"
   xmlns:inkscape="http://www.inkscape.org/namespaces/inkscape"
   xmlns:sodipodi="http://sodipodi.sourceforge.net/DTD/sodipodi-0.dtd"
   xmlns="http://www.w3.org/2000/svg"
   xmlns:svg="http://www.w3.org/2000/svg">
  <sodipodi:namedview
     id="namedview1"
     pagecolor="#ffffff"
     bordercolor="#000000"
     borderopacity="0.25"
     inkscape:showpageshadow="2"
     inkscape:pageopacity="0.0"
     inkscape:pagecheckerboard="0"
     inkscape:deskcolor="#d1d1d1"
     inkscape:document-units="mm" />
  <defs
     id="defs1" />
  <g
     id="g37"
     transform="matrix(34.064706,0,0,32.34206,-0.98166294,53.890917)">
    <g
       id="g2"
       transform="matrix(1.1046318,0,0,1.1071686,-0.71235837,0.00741843)">
      <path
         d="M 7.8300896,1.3051714 A 0.24335054,0.26045619 0 0 0 7.6200698,1.1871951 C 7.6559333,1.0025259 7.4458474,0.8503525 7.3014496,0.96450992 A 0.26182371,0.2802279 0 0 0 7.2162144,1.0778574 0.03218659,0.03444906 0 0 1 7.1763124,1.0963006 0.03181533,0.0340517 0 0 1 7.1564399,1.0495632 0.314403,0.33650311 0 0 1 7.3370015,0.86817612 0.32896214,0.35208567 0 0 0 7.0673003,0.66502962 C 6.8347489,0.63490909 6.6294592,0.83356452 6.6391122,1.0636396 6.3174768,1.0890803 6.2599443,1.5904961 6.5324687,1.7058697 a 0.34839207,0.37288135 0 0 0 0.1425132,0.030018 h 0.8831269 a 0.31562706,0.33781325 0 0 0 0.053482,-0.00384 C 7.8688977,1.6884155 7.875094,1.4967923 7.8656374,1.4161635 A 0.25738172,0.27547366 0 0 0 7.8300896,1.3051685 Z M 7.7377976,1.470966 A 0.09066635,0.0970395 0 0 1 7.6725756,1.563813 0.03305454,0.03537802 0 0 1 7.6543146,1.499587 c 0.020871,-0.014661 0.020217,-0.02967 0.016957,-0.057243 a 0.05414706,0.05795318 0 0 0 -0.00685,-0.024783 0.03261972,0.03491264 0 0 1 0.055115,-0.037346 0.1483471,0.15877477 0 0 1 0.018261,0.090751 z M 6.8484764,0.84967297 c 0.030093,-0.0321095 0.2019292,-0.1092962 0.2070848,-0.0282744 a 0.03271119,0.03501054 0 0 1 -0.032614,0.0349062 0.19774648,0.21164653 0 0 0 -0.1979523,0.15497663 0.03279963,0.0351052 0 0 1 -0.053809,0.017798 0.03232177,0.03459374 0 0 1 -0.00946,-0.0335063 0.24156182,0.25854178 0 0 1 0.086748,-0.14590053 z"
         id="path12"
         style="fill:#6f8a91;fill-opacity:0.99705;stroke:#828181;stroke-width:0;stroke-dasharray:none;stroke-opacity:1" />
      <path
         d="m 7.3200413,0.72122372 a 0.40866021,0.43738588 0 0 1 0.083162,0.1343823 0.27624128,0.29565893 0 0 1 0.2846995,0.26911108 0.31774771,0.34008292 0 0 1 0.1004452,0.041188 C 8.0990013,0.96205452 7.9652451,0.44722631 7.5995182,0.44513585 a 0.3604765,0.38581524 0 0 0 -0.3306788,0.22896916 0.33399903,0.35747661 0 0 1 0.051202,0.0471187 z"
         id="path13"
         style="fill:#ff2a7f;fill-opacity:1;stroke:#a47d5f;stroke-width:0;stroke-dasharray:none;stroke-opacity:1" />
      <path
         d="m 7.5996734,0.39992917 a 0.03261367,0.03490616 0 0 0 0.032612,-0.034904 v -0.1840297 a 0.032612,0.03490437 0 0 0 -0.065224,0 v 0.1840297 a 0.03261367,0.03490616 0 0 0 0.032612,0.034904 z"
         id="path14"
         style="fill:#ff2a7f;stroke:#828181;stroke-width:0;stroke-dasharray:none;stroke-opacity:1" />
      <path
         d="m 7.2667725,0.5270697 a 0.03261434,0.03490688 0 0 0 0.046114,-0.049358 L 7.1912939,0.34757322 a 0.03261434,0.03490688 0 0 0 -0.046113,0.0493572 z"
         id="path15"
         style="fill:#ff2a7f;fill-opacity:1;stroke:#828181;stroke-width:0;stroke-dasharray:none;stroke-opacity:1" />
      <path
         d="m 7.9325744,1.1409595 a 0.03261434,0.03490688 0 0 0 -0.046113,0.049358 L 8.008038,1.3204397 a 0.03261434,0.03490688 0 0 0 0.046113,-0.049358 z"
         id="path16"
         style="fill:#ff0066;stroke:#828181;stroke-width:0;stroke-dasharray:none;stroke-opacity:1" />
      <path
         d="M 7.909517,0.53729762 A 0.03250673,0.0347917 0 0 0 7.9325744,0.5270719 L 8.0541521,0.39693121 a 0.03261434,0.03490688 0 0 0 -0.046116,-0.049355 L 7.8864595,0.4777147 a 0.03282788,0.03513543 0 0 0 0.023058,0.0595829 z"
         id="path17"
         style="fill:#ff2a7f;stroke:#828181;stroke-width:0;stroke-dasharray:none;stroke-opacity:1" />
      <path
         d="M 8.3052657,0.85130511 H 8.0712521 a 0.04438887,0.03396001 0 0 0 0,0.0679129 h 0.2340136 a 0.04438887,0.03396001 0 0 0 0,-0.0679129 z"
         id="path6-9"
         style="fill:#ff0066;stroke:#828181;stroke-width:0;stroke-dasharray:none;stroke-opacity:1" />
    </g>
    <path
       d="M 7.5706625,2.4683975 A 0.60495733,0.37410472 0 0 0 7.0485625,2.298943 C 7.1377169,2.0336953 6.615455,1.8151221 6.2564886,1.9790912 A 0.65088072,0.40250367 0 0 0 6.0445978,2.1418968 0.08001425,0.04948069 0 0 1 5.9454036,2.1683876 0.07909132,0.04890996 0 0 1 5.8960051,2.1012566 0.78159019,0.48333424 0 0 1 6.3448709,1.8407219 0.81778353,0.50571615 0 0 0 5.6744077,1.5489342 C 5.0962937,1.505671 4.5859538,1.7910083 4.609951,2.1214748 3.8103811,2.1580173 3.6673583,2.8782224 4.3448401,3.043939 A 0.86608538,0.53558589 0 0 0 4.69912,3.0870545 h 2.1954112 a 0.78463325,0.48521604 0 0 0 0.132952,-0.00552 C 7.6671363,3.018866 7.6825405,2.7436289 7.6590309,2.6278179 A 0.63983809,0.39567495 0 0 0 7.5706625,2.4683913 Z M 7.341229,2.7065362 A 0.22539203,0.13938211 0 0 1 7.1790872,2.8398956 0.08217194,0.050815 0 0 1 7.1336931,2.7476451 c 0.051882,-0.021058 0.050259,-0.042616 0.042155,-0.082221 a 0.13460689,0.08324071 0 0 0 -0.017028,-0.035596 0.08109101,0.05014656 0 0 1 0.137013,-0.053642 0.3687835,0.22805519 0 0 1 0.045396,0.1303501 z M 5.1304205,1.814146 C 5.2052278,1.768025 5.6324058,1.6571585 5.6452221,1.7735339 a 0.08131839,0.05028718 0 0 1 -0.081076,0.050137 0.4915879,0.30399723 0 0 0 -0.4920998,0.2226 0.08153825,0.05042314 0 0 1 -0.133766,0.025565 0.08035032,0.04968852 0 0 1 -0.023513,-0.048126 0.60051065,0.37135493 0 0 1 0.2156521,-0.2095631 z"
       id="path11"
       style="fill:#55ddff;fill-opacity:0.362832;stroke:#828181;stroke-width:0;stroke-dasharray:none;stroke-opacity:1" />
    <path
       d="M 4.7607056,0.98846444 A 0.66188549,0.3438772 0 0 0 4.1894747,0.83270179 C 4.2870188,0.58888594 3.7156101,0.38797341 3.3228639,0.53869388 A 0.71213039,0.36998154 0 0 0 3.0910345,0.68834492 0.08754381,0.04548268 0 0 1 2.9825053,0.71269519 0.08653403,0.04495805 0 0 1 2.9284575,0.65098831 0.85514004,0.44428102 0 0 1 3.4195644,0.41150479 0.89473927,0.46485448 0 0 0 2.6860078,0.1432934 C 2.0534919,0.10352588 1.4951273,0.36580795 1.5213833,0.66957293 0.64657098,0.70316278 0.49009004,1.3651755 1.2313248,1.5175023 a 0.94758636,0.49231081 0 0 0 0.3876185,0.039632 h 2.4020054 a 0.85846934,0.44601078 0 0 0 0.145463,-0.00507 C 4.8662589,1.4944555 4.8831115,1.2414575 4.85739,1.1350041 A 0.70004865,0.36370456 0 0 0 4.7607056,0.98845871 Z M 4.5096811,1.2073616 a 0.24660203,0.12812009 0 0 1 -0.1773982,0.122584 0.08990455,0.04670917 0 0 1 -0.049666,-0.084797 c 0.056764,-0.019356 0.054988,-0.039173 0.046121,-0.075577 a 0.14727376,0.07651489 0 0 0 -0.018629,-0.03272 0.08872189,0.04609474 0 0 1 0.1499057,-0.049308 0.40348706,0.20962842 0 0 1 0.049666,0.119818 z M 2.0908295,0.38707625 C 2.1726766,0.34468179 2.6400543,0.24277316 2.6540758,0.3497455 A 0.08897068,0.04622399 0 0 1 2.5653698,0.3958313 0.53784769,0.27943436 0 0 0 2.0269624,0.60044525 0.08921123,0.04634897 0 0 1 1.880609,0.62394425 0.08791151,0.04567371 0 0 1 1.854883,0.57970665 0.65702036,0.34134961 0 0 1 2.0908295,0.38707625 Z"
       id="path9"
       style="fill:#55ddff;fill-opacity:0.433628;stroke:#828181;stroke-width:0;stroke-dasharray:none;stroke-opacity:1" />
    <text
       xml:space="preserve"
       style="font-size:1.44894px;font-family:'Li Fazlay Munnisha Unicode';-inkscape-font-specification:'Li Fazlay Munnisha Unicode';fill:#333333;stroke:#a47d5f;stroke-width:0;paint-order:markers fill stroke"
       x="2.8118608"
       y="1.6644059"
       id="text4"
       transform="scale(1.0357271,0.96550529)"><tspan
         id="tspan4"
         style="font-style:normal;font-variant:normal;font-weight:800;font-stretch:normal;font-family:'Noto Serif Bengali';-inkscape-font-specification:'Noto Serif Bengali Ultra-Bold';fill:#333333;stroke-width:0"
         x="2.8118608"
         y="1.6644059">রিয়ার</tspan></text>
    <text
       xml:space="preserve"
       style="font-size:1.24638px;font-family:'Li Fazlay Munnisha Unicode';-inkscape-font-specification:'Li Fazlay Munnisha Unicode';fill:#333333;stroke:#a47d5f;stroke-width:0;paint-order:markers fill stroke"
       x="3.1802926"
       y="2.8973241"
       id="text6"
       transform="scale(1.0280736,0.97269298)"><tspan
         id="tspan6"
         style="font-style:normal;font-variant:normal;font-weight:800;font-stretch:normal;font-family:'Noto Serif Bengali';-inkscape-font-specification:'Noto Serif Bengali Ultra-Bold';fill:#333333;stroke-width:0"
         x="3.1802926"
         y="2.8973241">গাইডেন্স</tspan></text>
    <path
       style="font-weight:bold;font-size:2.97585px;font-family:'Noto Serif Bengali';-inkscape-font-specification:'Noto Serif Bengali Bold';fill:#333333;fill-opacity:0.99705;stroke:#a47d5f;stroke-width:0;paint-order:markers fill stroke"
       d="m 0.99710308,2.4662204 c -0.1230018,0 -0.2400519,-0.034718 -0.35115031,-0.1041547 C 0.53683826,2.2906453 0.44855471,2.1835147 0.38110211,2.0406738 0.31364951,1.8958491 0.27992321,1.7153142 0.27992321,1.4990691 c 0,-0.1349052 0.0459624,-0.2340599 0.0896082,-0.3491261 C 0.4470994,1.0430192 0.4884412,0.99934702 0.56737813,0.92724489 0.68023721,0.83796939 0.73701416,0.81535083 0.82357918,0.7601425 0.96535856,0.69788711 1.1202757,0.64954615 1.1202757,0.64954615 L 1.281843,0.62253328 1.476215,0.75213075 H 1.3423017 c -0.091259,0 -0.1815269,0.0218229 -0.2708024,0.0654687 -0.0872916,0.0436458 -0.16664757,0.10514672 -0.23806797,0.18450275 -0.0694365,0.077372 -0.12498571,0.1686315 -0.16664761,0.2737782 -0.0416619,0.1031628 -0.0624928,0.2162451 -0.0624928,0.3392469 0,0.119034 0.0109114,0.2261646 0.0327343,0.3213918 0.0238068,0.095227 0.0615009,0.1745832 0.1130823,0.238068 0.0535653,0.061501 0.12498574,0.1051465 0.21426121,0.1309374 l -0.0862997,0.041662 c -0.0257907,-0.025791 -0.0476136,-0.056541 -0.0654687,-0.092251 -0.0158712,-0.037694 -0.0238068,-0.082332 -0.0238068,-0.1339133 0,-0.07142 0.0247988,-0.1309374 0.0743963,-0.178551 0.0495975,-0.047613 0.11308226,-0.07142 0.19045437,-0.07142 0.093243,0 0.1626798,0.028767 0.2083095,0.0863 0.047613,0.055549 0.07142,0.121018 0.07142,0.1964061 0,0.097211 -0.029758,0.1735913 -0.089275,0.2291405 -0.059517,0.055549 -0.1418492,0.083324 -0.24699552,0.083324 z M 2.6606007,2.4602687 2.455267,2.3323072 C 2.3838466,2.2231927 2.2995309,2.1309413 2.2023198,2.0555531 2.1070926,1.9801649 2.0009539,1.9196559 1.8839038,1.8740262 1.7668537,1.8283965 1.6388921,1.7976461 1.5000191,1.7817749 L 1.3363474,1.3443249 C 1.4494297,1.2709206 1.5654878,1.203468 1.6845218,1.1419671 1.8035559,1.0804662 1.9265577,1.024917 2.0535273,0.9753195 2.1824808,0.925722 2.3144101,0.88306815 2.4493153,0.84735795 L 2.4195568,0.99317461 V 0.75213075 H 1.3214681 l -0.039037,-0.13068954 2.2536511,-0.001773 0.079766,0.13246313 H 2.6873833 V 0.9277059 L 2.6427453,0.8533097 C 2.8054251,0.8652131 2.94529,0.90588305 3.0623401,0.97531955 3.1813742,1.0427721 3.2726336,1.1300637 3.3361184,1.2371943 c 0.065469,0.1051468 0.098203,0.2221969 0.098203,0.3511503 0,0.1368892 -0.03075,0.2440198 -0.092251,0.3213918 -0.059517,0.075388 -0.1418485,0.1130824 -0.2469956,0.1130824 -0.087292,0 -0.1537523,-0.024799 -0.199382,-0.074396 -0.043646,-0.051581 -0.065469,-0.1140741 -0.065469,-0.1874786 0,-0.069436 0.021823,-0.1259775 0.065469,-0.1696234 0.043646,-0.043646 0.1001872,-0.065469 0.1696235,-0.065469 0.063485,0 0.1150661,0.016863 0.1547442,0.050589 0.039678,0.033726 0.063485,0.084315 0.07142,0.1517684 l -0.053565,0.00298 c 0.013887,-0.019839 0.022815,-0.037694 0.026783,-0.053565 0.00595,-0.017855 0.00893,-0.037694 0.00893,-0.059517 0,-0.051581 -0.013887,-0.1001868 -0.041662,-0.1458166 -0.027776,-0.045632 -0.067455,-0.086304 -0.1190366,-0.122014 -0.051581,-0.03571 -0.1130823,-0.063485 -0.1845027,-0.083324 -0.07142,-0.021823 -0.1497845,-0.032734 -0.2350922,-0.032734 -0.019839,0 -0.038686,0.00298 -0.056541,0.00893 L 2.687383,1.1687525 V 2.454317 Z M 2.4195568,2.1478044 V 1.1330396 l 0.05059,0.1041547 c -0.077373,0.023807 -0.1587125,0.053565 -0.2440202,0.089275 -0.085308,0.033726 -0.1686315,0.072412 -0.2499714,0.1160582 -0.08134,0.041662 -0.1577201,0.085308 -0.2291405,0.1309374 l -0.023807,-0.068445 c 0.087292,0.021823 0.1765671,0.056541 0.2678265,0.1041548 0.091259,0.047613 0.1775591,0.1101062 0.258899,0.1874785 0.08134,0.077372 0.1517683,0.1735913 0.2112853,0.2886575 z"
       id="text3"
       transform="scale(0.84461948,1.1839651)"
       aria-label="কে" />
  </g>
</svg>
