<?xml version="1.0" encoding="UTF-8" standalone="no"?>
<!-- Created with Inkscape (http://www.inkscape.org/) -->

<svg
   width="150"
   height="50"
   viewBox="0 0 39.687498 13.229166"
   version="1.1"
   id="svg1"
   sodipodi:docname="logo2.svg"
   inkscape:export-filename="logo2.svg"
   inkscape:export-xdpi="96"
   inkscape:export-ydpi="96"
   inkscape:version="1.3 (0e150ed, 2023-07-21)"
   xmlns:inkscape="http://www.inkscape.org/namespaces/inkscape"
   xmlns:sodipodi="http://sodipodi.sourceforge.net/DTD/sodipodi-0.dtd"
   xmlns="http://www.w3.org/2000/svg"
   xmlns:svg="http://www.w3.org/2000/svg">
  <sodipodi:namedview
     id="namedview1"
     pagecolor="#ffffff"
     bordercolor="#000000"
     borderopacity="0.25"
     inkscape:showpageshadow="2"
     inkscape:pageopacity="0.0"
     inkscape:pagecheckerboard="0"
     inkscape:deskcolor="#d1d1d1"
     inkscape:document-units="mm"
     inkscape:zoom="5.2016968"
     inkscape:cx="75.263902"
     inkscape:cy="23.26164"
     inkscape:window-width="1440"
     inkscape:window-height="785"
     inkscape:window-x="0"
     inkscape:window-y="25"
     inkscape:window-maximized="0"
     inkscape:current-layer="layer1" />
  <defs
     id="defs1" />
  <g
     inkscape:label="Layer 1"
     inkscape:groupmode="layer"
     id="layer1">
    <g
       id="g1"
       transform="matrix(1.0160316,0,0,1,-0.62811205,0)">
      <path
         d="M 35.562443,10.208226 A 2.8113144,1.5612511 0 0 0 33.136177,9.5010417 C 33.550489,8.3940833 31.123471,7.4819119 29.455308,8.1662042 A 3.0247263,1.6797684 0 0 0 28.470624,8.8456409 0.37183651,0.20649776 0 0 1 28.009656,8.9561948 0.3675475,0.2041159 0 0 1 27.780095,8.6760368 3.63215,2.0170986 0 0 1 29.866032,7.5887476 3.8003451,2.110505 0 0 0 26.750303,6.37103 c -2.68657,-0.18055 -5.058185,1.0102477 -4.946667,2.3893836 -3.715704,0.1525027 -4.380349,3.1581344 -1.232004,3.8497194 a 4.02481,2.2351604 0 0 0 1.646384,0.179934 h 10.202358 a 3.6462915,2.0249519 0 0 0 0.617845,-0.02304 c 2.97255,-0.261531 3.044135,-1.410178 2.934883,-1.893492 A 2.9734098,1.6512701 0 0 0 35.562443,10.2082 Z M 34.496236,11.20205 A 1.0474257,0.58168332 0 0 1 33.742742,11.758599 0.38186355,0.21206624 0 0 1 33.53179,11.37361 c 0.241104,-0.08788 0.233562,-0.177849 0.195899,-0.343133 a 0.62553551,0.34738841 0 0 0 -0.07913,-0.148553 0.37684032,0.20927662 0 0 1 0.636717,-0.223864 1.7137843,0.95174265 0 0 1 0.210956,0.54399 z M 24.222325,7.4778386 c 0.347639,-0.1924768 2.33279,-0.6551562 2.392349,-0.1694868 A 0.37789701,0.20986345 0 0 1 26.237905,7.5175879 2.2844721,1.2686715 0 0 0 23.951054,8.4465642 0.37891874,0.21043088 0 0 1 23.329426,8.5532534 0.37339824,0.20736509 0 0 1 23.220157,8.3524083 2.7906501,1.5497754 0 0 1 24.22232,7.4778389 Z"
         id="path11"
         style="fill:#55ddff;fill-opacity:0.362832;stroke:#828181;stroke-width:0;stroke-dasharray:none;stroke-opacity:1" />
      <path
         d="M 22.504212,4.0320219 A 3.0758669,1.4351026 0 0 0 19.849629,3.3819777 c 0.4533,-1.0175166 -2.20211,-1.8559848 -4.027252,-1.2269831 A 3.3093614,1.5440438 0 0 0 14.745036,2.7795332 0.40682735,0.18981283 0 0 1 14.240687,2.8811542 0.40213474,0.18762341 0 0 1 13.98952,2.6236329 3.9739456,1.8541178 0 0 1 16.271757,1.6241964 4.1579683,1.939977 0 0 0 12.862825,0.50486993 C 9.9234425,0.33890815 7.3286503,1.4334898 7.4506655,2.7011921 3.3853002,2.8413726 2.6581132,5.60415 6.1027264,6.2398553 a 4.4035555,2.0545605 0 0 0 1.801313,0.1653956 H 19.066467 a 3.9894173,1.8613366 0 0 0 0.675985,-0.021177 c 3.25228,-0.2403997 3.330596,-1.2962362 3.211065,-1.7404981 A 3.253216,1.5178481 0 0 0 22.504212,4.031998 Z M 21.337669,4.9455452 A 1.1459913,0.53468353 0 0 1 20.513277,5.4571251 0.41779798,0.19493137 0 0 1 20.282471,5.1032426 c 0.263788,-0.080779 0.255536,-0.1634785 0.214331,-0.3154069 a 0.6844001,0.31931956 0 0 0 -0.08657,-0.1365502 0.41230204,0.19236714 0 0 1 0.696631,-0.2057761 1.8750562,0.87484221 0 0 1 0.230809,0.5000358 z M 10.096955,1.5222488 C 10.477309,1.345324 12.649273,0.92002879 12.714433,1.3664564 A 0.41345819,0.19290656 0 0 1 12.302207,1.5587863 2.4994473,1.1661633 0 0 0 9.8001586,2.4127016 0.41457605,0.19342814 0 0 1 9.1200357,2.5107702 0.40853607,0.19061006 0 0 1 9.0004846,2.3261533 3.053258,1.4245542 0 0 1 10.096955,1.5222488 Z"
         id="path9"
         style="fill:#55ddff;fill-opacity:0.433628;stroke:#828181;stroke-width:0;stroke-dasharray:none;stroke-opacity:1" />
      <path
         style="font-size:38.1439px;font-family:'Li Ador Noirrit';-inkscape-font-specification:'Li Ador Noirrit';white-space:pre;inline-size:41.0707;fill:#333333;stroke:#a47d5f;stroke-width:0;paint-order:markers fill stroke"
         d="M 3.8821663,11.725851 V 10.096603 C 3.5621954,10.025546 3.2941124,9.847902 3.0779161,9.5636693 2.8617199,9.2692901 2.7536216,8.8480188 2.7536216,8.2998621 V 6.3965352 c 0,-0.7308765 0.1426895,-1.3297913 0.4280684,-1.7967408 C 3.475717,4.1328449 3.8302789,3.8942969 4.245376,3.8841472 L 3.9804399,3.1667301 C 3.107007,3.1971693 2.8048516,3.2728237 1.9259185,3.9547777 1.3205692,4.7668646 1.1062066,5.4017317 1.1062066,6.7010674 v 1.2942625 c 0,0.9846541 0.2421396,1.8170434 0.7264189,2.4971661 0.4929274,0.669972 1.1761075,1.08109 2.0495408,1.233355 z m 6.9528617,0 V 5.8179231 h 0.38915 c 0.363213,0 0.661564,0.1116627 0.895056,0.3349877 0.233492,0.2233252 0.350235,0.4923286 0.350235,0.8070104 0,0.3248348 -0.0735,0.5684592 -0.220518,0.7308766 -0.138367,0.1624174 -0.307,0.2436277 -0.5059,0.2436277 v 1.6292438 c 0.657239,0 1.215025,-0.2385481 1.67336,-0.7156473 0.466984,-0.4770991 0.700476,-1.0607877 0.700476,-1.7510624 0,-0.8628385 -0.281058,-1.5632627 -0.843167,-2.1012731 C 12.72026,4.4576829 12.037078,4.1886793 11.224178,4.1886793 h -0.38915 V 3.8841472 h 3.800728 l 4e-6,-0.6823447 -10.914763,-0.035072 0.2649361,0.717417 h 5.2016794 v 0.304532 L 6.5802878,5.1174987 C 5.9403465,5.3509735 5.4560668,5.7570186 5.1274482,6.3356308 4.7988293,6.9142429 4.63452,7.5334569 4.63452,8.1932761 V 9.2134587 L 9.1876125,11.725851 Z M 9.1876125,9.898657 6.2819368,8.2846393 V 7.8887439 c 0,-0.6395166 0.2853781,-1.0607844 0.8561345,-1.263807 L 9.1876125,5.894057 Z"
         id="text1"
         aria-label="কে"
         sodipodi:nodetypes="cccssccccssccccsssccccscscccccccccsscccccsccc" />
      <text
         xml:space="preserve"
         style="font-size:6.38092px;font-family:'Li Fazlay Munnisha Unicode';-inkscape-font-specification:'Li Fazlay Munnisha Unicode';fill:#333333;stroke:#a47d5f;stroke-width:0;paint-order:markers fill stroke"
         x="13.005426"
         y="7.4485927"
         id="text4"
         transform="scale(1.092944,0.91495999)"><tspan
           sodipodi:role="line"
           id="tspan4"
           style="font-style:normal;font-variant:normal;font-weight:normal;font-stretch:normal;font-family:'Li Ador Noirrit';-inkscape-font-specification:'Li Ador Noirrit';fill:#333333;stroke-width:0"
           x="13.005426"
           y="7.4485927">রিয়ার</tspan></text>
      <text
         xml:space="preserve"
         style="font-size:6.11948px;font-family:'Li Fazlay Munnisha Unicode';-inkscape-font-specification:'Li Fazlay Munnisha Unicode';fill:#333333;stroke:#a47d5f;stroke-width:0;paint-order:markers fill stroke"
         x="12.461998"
         y="13.787514"
         id="text6"
         transform="scale(1.1974298,0.835122)"><tspan
           sodipodi:role="line"
           id="tspan6"
           style="font-style:normal;font-variant:normal;font-weight:bold;font-stretch:normal;font-family:'Li Ador Noirrit';-inkscape-font-specification:'Li Ador Noirrit Bold';fill:#333333;stroke-width:0"
           x="12.461998"
           y="13.787514">গাইডেন্স</tspan></text>
      <path
         d="M 36.768034,5.353735 A 1.1308812,1.0869617 0 0 0 35.792045,4.8613845 C 35.958707,4.0907044 34.982411,3.4556394 34.311376,3.9320525 A 1.2167284,1.169475 0 0 0 33.915277,4.4050857 0.1495752,0.14376623 0 0 1 33.729847,4.4820547 0.14784991,0.14210794 0 0 1 33.637497,4.2870052 1.4610711,1.4043283 0 0 1 34.47659,3.5300227 1.5287293,1.469359 0 0 0 33.223254,2.6822315 C 32.142558,2.5565295 31.18855,3.3855781 31.233409,4.3457503 29.738728,4.451922 29.471367,6.5444804 30.737823,7.0259688 A 1.6190227,1.5561456 0 0 0 31.4001,7.1512413 h 4.104004 A 1.4667595,1.4097959 0 0 0 35.75264,7.135208 C 36.94838,6.9531272 36.977175,6.1534264 36.933229,5.8169383 A 1.1960859,1.1496341 0 0 0 36.768034,5.3537227 Z m -0.428893,0.6919103 a 0.42133816,0.40497491 0 0 1 -0.303097,0.3874763 0.15360869,0.14764307 0 0 1 -0.08486,-0.2680333 c 0.09699,-0.061183 0.09395,-0.1238205 0.0788,-0.2388922 a 0.25162833,0.24185598 0 0 0 -0.03183,-0.1034252 0.15158804,0.14570089 0 0 1 0.256125,-0.1558562 0.68938801,0.66261467 0 0 1 0.08486,0.3787306 z m -4.13279,-2.5928418 c 0.139844,-0.1340026 0.938391,-0.4561258 0.96235,-0.1179974 a 0.1520131,0.14610946 0 0 1 -0.15156,0.145674 0.91895327,0.88326438 0 0 0 -0.91991,0.646764 0.15242411,0.1465045 0 0 1 -0.250056,0.074278 0.15020343,0.14437006 0 0 1 -0.04395,-0.1398321 1.1225688,1.0789723 0 0 1 0.40313,-0.6088866 z"
         id="path12"
         style="fill:#6f8a91;fill-opacity:0.99705;stroke:#828181;stroke-width:0;stroke-dasharray:none;stroke-opacity:1" />
      <path
         d="m 34.397774,2.9167463 a 1.8990965,1.8253423 0 0 1 0.386462,0.5608176 1.2837287,1.2338733 0 0 1 1.323035,1.1230812 1.4766144,1.4192679 0 0 1 0.466782,0.1718893 C 38.017701,3.9218054 37.396119,1.773273 35.696539,1.7645489 a 1.6751806,1.6101226 0 0 0 -1.536707,0.9555569 1.5521364,1.491857 0 0 1 0.237942,0.1966405 z"
         id="path13"
         style="fill:#ff2a7f;fill-opacity:1;stroke:#a47d5f;stroke-width:0;stroke-dasharray:none;stroke-opacity:1" />
      <path
         d="M 35.69726,1.5758879 A 0.1515599,0.14567386 0 0 0 35.848812,1.4302232 V 0.66221213 a 0.15155209,0.14566635 0 0 0 -0.303103,0 V 1.4302232 a 0.1515599,0.14567386 0 0 0 0.151551,0.1456647 z"
         id="path14"
         style="fill:#ff2a7f;stroke:#828181;stroke-width:0;stroke-dasharray:none;stroke-opacity:1" />
      <path
         d="M 34.150227,2.1064834 A 0.15156303,0.14567687 0 0 0 34.364523,1.9004978 L 33.799468,1.3573908 A 0.15156303,0.14567687 0 0 0 33.585174,1.5633733 Z"
         id="path15"
         style="fill:#ff2a7f;fill-opacity:1;stroke:#828181;stroke-width:0;stroke-dasharray:none;stroke-opacity:1" />
      <path
         d="m 37.244294,4.6684295 a 0.15156303,0.14567687 0 0 0 -0.214291,0.2059856 l 0.56498,0.5430389 a 0.15156303,0.14567687 0 0 0 0.214295,-0.2059854 z"
         id="path16"
         style="fill:#ff0066;stroke:#828181;stroke-width:0;stroke-dasharray:none;stroke-opacity:1" />
      <path
         d="m 37.137143,2.1491676 a 0.15106295,0.1451962 0 0 0 0.107151,-0.042675 L 37.809281,1.5633765 A 0.15156303,0.14567687 0 0 0 37.594972,1.3574033 l -0.56498,0.5431069 a 0.15255539,0.14663068 0 0 0 0.107151,0.2486574 z"
         id="path17"
         style="fill:#ff2a7f;stroke:#828181;stroke-width:0;stroke-dasharray:none;stroke-opacity:1" />
      <path
         d="m 38.976238,3.4596149 h -1.087491 a 0.20628076,0.14172529 0 0 0 0,0.2834209 h 1.087491 a 0.20628076,0.14172529 0 0 0 0,-0.2834209 z"
         id="path6-9"
         style="fill:#ff0066;stroke:#828181;stroke-width:0;stroke-dasharray:none;stroke-opacity:1" />
    </g>
  </g>
</svg>
